<svg width="2092" height="694" viewBox="0 0 2092 694" fill="none" xmlns="http://www.w3.org/2000/svg" xmlns:xlink="http://www.w3.org/1999/xlink">
<path d="M609.944 110.962C612.412 102.398 620.249 96.5 629.161 96.5H1839.59L1785.75 283.36L1839.59 470.219H506.414L609.944 110.962Z" fill="url(#pattern0_3640_8646)"/>
<path d="M609.944 110.962C612.412 102.398 620.249 96.5 629.161 96.5H1839.59L1785.75 283.36L1839.59 470.219H506.414L609.944 110.962Z" fill="#212169" fill-opacity="0.38"/>
<path d="M487.479 110.962C489.947 102.398 497.784 96.5 506.697 96.5H1789.13L1735.28 283.36L1789.13 470.219H383.949L487.479 110.962Z" fill="url(#pattern1_3640_8646)"/>
<g filter="url(#filter0_d_3640_8646)">
<rect x="287.969" y="406.219" width="64" height="64" rx="14" fill="#EEEEF8"/>
</g>
<g filter="url(#filter1_d_3640_8646)">
<path d="M120.406 573.322C120.406 555.649 134.733 541.322 152.406 541.322H1736.18C1753.86 541.322 1768.18 555.649 1768.18 573.322V621.322H120.406V573.322Z" fill="#D5D5E6"/>
</g>
<path d="M348.969 573.322C348.969 555.649 363.296 541.322 380.969 541.322H453.68C471.353 541.322 485.68 555.649 485.68 573.322V621.322H348.969V573.322Z" fill="#C5C5E0" fill-opacity="0.61"/>
<path d="M266.121 502.217C266.121 484.544 280.448 470.217 298.121 470.217H892.805C910.478 470.217 924.805 484.544 924.805 502.217V541.32H266.121V502.217Z" fill="#C5C5E0"/>
<g filter="url(#filter2_d_3640_8646)">
<path fill-rule="evenodd" clip-rule="evenodd" d="M943.813 234.162C960.731 212.649 988.849 199.366 1015.89 200.666C1036.05 200.559 1057.38 205.17 1074.57 217.46C1075.77 218.309 1076.94 219.189 1078.09 220.099C1095.27 232.918 1107.63 251.514 1114.59 271.28C1123.02 293.461 1126.42 317.182 1126.33 340.547C1126.28 363.906 1122.75 387.578 1114.22 409.649L1113.88 410.57C1106.67 429.888 1094.29 447.764 1077.66 460.362L1076.87 460.978C1059.4 474.461 1036.98 479.557 1015.89 479.289C999.788 479.209 983.288 475.999 968.739 468.356C968.724 468.348 968.68 468.324 968.664 468.316C959.073 463.156 950.646 455.848 943.991 447.259C943.743 473.104 943.473 498.949 943.181 524.794V543.192H941.658C941.199 543.48 940.65 543.649 940.052 543.656C927.345 543.507 914.638 543.351 901.932 543.192H880.482V485.497C880.471 484.6 880.46 483.703 880.449 482.806C879.399 392.667 878.62 302.527 878.114 212.387C878.098 209.391 880.416 207.107 883.412 207.09C901.492 206.989 919.572 206.898 937.651 206.819C940.729 206.805 943.134 209.183 943.219 212.259C943.419 219.56 943.616 226.861 943.813 234.162ZM1342.58 201.259C1359.8 200.687 1379.75 208.287 1389.45 224.257L1389.4 224.183C1403.03 245.712 1404.02 270.075 1404.43 293.028C1404.56 351.588 1404.65 410.148 1404.7 468.707C1404.71 472.078 1402.11 474.663 1398.74 474.665C1380.66 474.68 1362.58 474.692 1344.5 474.699C1341.12 474.7 1338.52 472.096 1338.51 468.707C1338.51 452.949 1338.5 437.191 1338.5 421.433C1338.5 382.311 1338.52 343.19 1338.56 304.068C1338.46 291.577 1338.17 277.809 1333.95 268.306C1331.44 263.288 1327.9 260.99 1322.42 260.98C1316.37 260.88 1311.42 264.344 1307.68 270.216C1302.34 279.141 1301.41 292.291 1301.31 304.547C1301.2 359.267 1301.06 413.988 1300.88 468.707C1300.89 471.726 1298.56 474.034 1295.54 474.043C1278.58 473.988 1261.62 473.928 1244.66 473.866C1241.75 473.876 1239.52 471.626 1239.51 468.707C1239.71 413.828 1239.95 358.948 1240.22 304.068C1240.17 291.604 1239.94 278.262 1235.56 267.977C1232.98 262.278 1228.33 259.173 1222.1 259.229C1215.49 259.045 1209.97 262.992 1206.32 269.159C1206.32 269.171 1206.29 269.209 1206.29 269.221C1200.51 278.855 1199.65 292.125 1199.46 304.547C1199.22 345.316 1198.95 386.086 1198.67 426.855C1198.57 440.806 1198.47 454.757 1198.37 468.707C1198.38 470.213 1197.21 471.358 1195.7 471.369C1177.62 471.235 1159.54 471.099 1141.46 470.957C1140.19 470.967 1139.22 469.98 1139.21 468.707C1138.96 436.677 1138.73 404.646 1138.5 372.615C1138.13 319.206 1137.79 265.796 1137.48 212.387C1137.47 210.134 1139.21 208.417 1141.46 208.404C1157.3 208.313 1173.14 208.226 1188.98 208.141C1191.3 208.129 1193.13 209.917 1193.23 212.226C1193.49 218.381 1193.76 224.535 1194.02 230.69C1203.74 214.341 1220.04 200.811 1240.34 201.845C1252.35 201.621 1265.94 205.528 1274.69 215.291L1275.1 215.729C1281.23 222.353 1285.28 230.081 1288.13 238.109C1292.19 229.558 1297.68 221.566 1305.07 215.145C1315.17 206.086 1329.15 201.118 1342.58 201.259ZM776.56 201.041C793.458 200.961 811.477 204.202 826.363 214.366C839.743 223.337 849.922 236.805 855.893 251.431L856.519 252.936C863.039 268.966 865.53 286.227 865.545 303.108C865.581 330.524 865.6 357.941 865.6 385.357C865.6 413.14 865.58 440.924 865.543 468.707C865.548 472.07 862.962 474.647 859.6 474.652C840.72 474.626 821.839 474.592 802.959 474.549C799.655 474.557 797.125 472.012 797.117 468.707C797.232 417.988 797.409 367.267 797.649 316.547C799.004 288.956 786.954 257.735 757.359 259.946C743.683 259.699 730.548 265.047 720.69 274.694C709.356 285.351 705.443 302.141 705.38 318.467C705.026 364.705 704.619 410.944 704.161 457.182C704.123 461.024 704.086 464.866 704.047 468.707C704.063 470.318 702.81 471.539 701.199 471.555C682.319 471.365 663.44 471.165 644.56 470.957C643.287 470.971 642.324 469.98 642.31 468.707C642.06 445.986 641.822 423.263 641.597 400.541C640.976 337.824 640.45 275.105 640.02 212.387C640.002 209.819 641.992 207.865 644.56 207.847C661.84 207.729 679.12 207.617 696.4 207.513C699.071 207.497 701.171 209.566 701.271 212.235C701.594 220.895 701.914 229.555 702.234 238.215C708.106 229.19 715.714 221.191 725.041 215.429L725.745 215C740.891 205.502 758.962 201.014 776.56 201.041ZM1659.2 206.388C1664.66 206.388 1667.24 211.32 1664.12 215.81C1662.64 217.949 1661.15 220.088 1659.67 222.227C1632.8 260.9 1605.89 299.54 1578.93 338.147C1608.6 380.634 1638.21 423.16 1667.76 465.728C1670.5 469.593 1668.25 473.872 1663.52 473.892C1642.56 473.78 1621.6 473.656 1600.64 473.521C1599.32 473.529 1597.36 472.461 1596.63 471.368C1577.43 442.016 1558.26 412.646 1539.12 383.258C1519.73 411.751 1500.3 440.227 1480.86 468.685C1480.48 469.237 1480.1 469.79 1479.72 470.342C1479.28 471.013 1478.08 471.641 1477.28 471.649C1456.16 471.43 1435.04 471.2 1413.92 470.957C1411.86 470.977 1410.91 469.107 1412.08 467.412C1424.42 449.454 1436.77 431.503 1449.14 413.56C1466.68 388.101 1484.24 362.657 1501.83 337.227C1472.71 296.608 1443.65 255.951 1414.64 215.256C1412 211.542 1414.16 207.425 1418.72 207.403C1439.52 207.279 1460.32 207.166 1481.12 207.065C1482.55 207.058 1484.72 208.219 1485.53 209.407C1503.41 235.584 1521.27 261.777 1539.1 287.984C1556.34 261.678 1573.59 235.387 1590.86 209.11C1591.76 207.742 1594.2 206.434 1595.84 206.432C1616.96 206.406 1638.08 206.391 1659.2 206.388ZM1001.49 263.507C985.883 263.279 971.322 269.88 961.505 281.935C949.12 297.329 946.115 319.462 946.052 340.547C946.115 361.625 949.119 383.749 961.491 399.142C966.871 405.582 973.481 410.715 981.031 413.793C987.397 416.417 994.371 417.594 1001.49 417.587C1008.65 417.592 1015.67 416.494 1022.01 413.922C1029.47 410.936 1035.88 405.848 1040.86 399.329C1052.59 383.47 1055.42 361.542 1055.49 340.547C1055.42 319.7 1052.66 297.845 1040.89 282.281C1040.88 282.27 1040.86 282.238 1040.85 282.227C1031.82 269.709 1017.19 263.262 1001.49 263.507Z" fill="#FCFCFF"/>
</g>
<path d="M477.496 103.731C478.73 99.4488 482.649 96.5 487.105 96.5H538.818L431.121 470.219H385.172C378.518 470.219 373.72 463.843 375.563 457.45L477.496 103.731Z" fill="#EEEEF8"/>
<g filter="url(#filter3_d_3640_8646)">
<path d="M1080.43 484.219C1080.43 476.487 1086.7 470.219 1094.43 470.219H1784.07C1801.75 470.219 1816.07 484.546 1816.07 502.219V541.322H1080.43V484.219Z" fill="#DEDEEF"/>
</g>
<g filter="url(#filter4_d_3640_8646)">
<rect x="1650.3" y="407.816" width="63.3984" height="133.506" fill="#3D3D3D"/>
</g>
<path d="M1659.56 422.309V416.969H1660.64L1660.67 417.929C1660.81 417.562 1661.02 417.292 1661.31 417.119C1661.6 416.939 1661.93 416.849 1662.31 416.849C1662.7 416.849 1663.02 416.935 1663.28 417.109C1663.53 417.282 1663.72 417.522 1663.85 417.829C1663.97 418.129 1664.04 418.472 1664.04 418.859V422.309H1662.86V419.139C1662.86 418.285 1662.54 417.859 1661.91 417.859C1661.59 417.859 1661.31 417.972 1661.08 418.199C1660.85 418.419 1660.74 418.745 1660.74 419.179V422.309H1659.56ZM1665.03 423.809V416.969H1666.16L1666.18 417.839C1666.5 417.179 1667.04 416.849 1667.79 416.849C1668.29 416.849 1668.69 416.975 1669.01 417.229C1669.34 417.475 1669.58 417.812 1669.73 418.239C1669.89 418.659 1669.97 419.125 1669.97 419.639C1669.97 420.152 1669.89 420.619 1669.73 421.039C1669.58 421.459 1669.34 421.795 1669.01 422.049C1668.69 422.302 1668.29 422.429 1667.79 422.429C1667.44 422.429 1667.13 422.359 1666.85 422.219C1666.58 422.072 1666.37 421.859 1666.21 421.579V423.809H1665.03ZM1667.49 421.369C1667.89 421.369 1668.19 421.225 1668.41 420.939C1668.63 420.645 1668.74 420.212 1668.74 419.639C1668.74 419.065 1668.63 418.635 1668.41 418.349C1668.19 418.055 1667.89 417.909 1667.49 417.909C1667.11 417.909 1666.8 418.052 1666.56 418.339C1666.33 418.625 1666.21 419.059 1666.21 419.639C1666.21 420.219 1666.33 420.652 1666.56 420.939C1666.8 421.225 1667.11 421.369 1667.49 421.369ZM1670.31 422.309V416.969H1671.3L1671.33 417.759C1671.53 417.152 1671.88 416.849 1672.37 416.849C1672.64 416.849 1672.86 416.932 1673.01 417.099C1673.17 417.265 1673.28 417.515 1673.35 417.849C1673.44 417.529 1673.59 417.282 1673.79 417.109C1673.99 416.935 1674.23 416.849 1674.5 416.849C1674.9 416.849 1675.19 416.992 1675.38 417.279C1675.57 417.565 1675.67 418.022 1675.67 418.649V422.309H1674.54V418.879C1674.54 418.492 1674.5 418.225 1674.43 418.079C1674.36 417.932 1674.24 417.859 1674.08 417.859C1673.91 417.859 1673.78 417.942 1673.67 418.109C1673.57 418.269 1673.52 418.529 1673.52 418.889V422.309H1672.46V418.879C1672.46 418.505 1672.42 418.242 1672.35 418.089C1672.28 417.935 1672.16 417.859 1671.99 417.859C1671.82 417.859 1671.69 417.942 1671.59 418.109C1671.49 418.269 1671.44 418.529 1671.44 418.889V422.309H1670.31ZM1675.99 422.309L1677.92 419.569L1676.09 416.969H1677.39L1678.6 418.759L1679.78 416.969H1681.1L1679.28 419.589L1681.19 422.309H1679.88L1678.6 420.379L1677.31 422.309H1675.99ZM1661.87 431.429C1661.37 431.429 1660.95 431.349 1660.61 431.189C1660.27 431.029 1660 430.812 1659.82 430.539C1659.63 430.265 1659.52 429.962 1659.5 429.629L1660.68 429.579C1660.73 429.832 1660.85 430.035 1661.05 430.189C1661.24 430.335 1661.52 430.409 1661.88 430.409C1662.55 430.409 1662.89 430.229 1662.89 429.869C1662.89 429.755 1662.86 429.659 1662.8 429.579C1662.74 429.499 1662.63 429.432 1662.47 429.379C1662.3 429.319 1662.05 429.255 1661.73 429.189C1661.19 429.089 1660.77 428.969 1660.47 428.829C1660.16 428.682 1659.94 428.502 1659.81 428.289C1659.68 428.075 1659.62 427.815 1659.62 427.509C1659.62 427.042 1659.79 426.649 1660.15 426.329C1660.51 426.009 1661.04 425.849 1661.75 425.849C1662.25 425.849 1662.67 425.932 1662.99 426.099C1663.31 426.265 1663.55 426.482 1663.72 426.749C1663.89 427.015 1664 427.302 1664.04 427.609L1662.85 427.669C1662.8 427.435 1662.68 427.245 1662.5 427.099C1662.31 426.945 1662.06 426.869 1661.76 426.869C1661.43 426.869 1661.19 426.932 1661.05 427.059C1660.9 427.185 1660.83 427.335 1660.83 427.509C1660.83 427.722 1660.91 427.879 1661.09 427.979C1661.27 428.072 1661.6 428.165 1662.08 428.259C1662.6 428.359 1663.01 428.475 1663.31 428.609C1663.6 428.742 1663.8 428.909 1663.92 429.109C1664.04 429.309 1664.1 429.559 1664.1 429.859C1664.1 430.345 1663.9 430.729 1663.5 431.009C1663.1 431.289 1662.55 431.429 1661.87 431.429ZM1668.14 431.309C1667.57 431.309 1667.15 431.179 1666.87 430.919C1666.6 430.652 1666.46 430.249 1666.46 429.709V426.929H1664.85V425.969H1666.46V424.719H1667.64V425.969H1669.67V426.929H1667.64V429.619C1667.64 430.105 1667.88 430.349 1668.35 430.349H1669.67V431.309H1668.14ZM1672.25 431.429C1671.92 431.429 1671.62 431.369 1671.35 431.249C1671.08 431.129 1670.87 430.959 1670.71 430.739C1670.55 430.512 1670.47 430.245 1670.47 429.939C1670.47 429.492 1670.61 429.142 1670.89 428.889C1671.18 428.635 1671.59 428.452 1672.12 428.339L1673.79 427.989C1673.79 427.222 1673.47 426.839 1672.82 426.839C1672.51 426.839 1672.28 426.912 1672.11 427.059C1671.94 427.205 1671.83 427.399 1671.78 427.639L1670.55 427.569C1670.65 427.055 1670.9 426.642 1671.29 426.329C1671.68 426.009 1672.19 425.849 1672.8 425.849C1673.53 425.849 1674.07 426.042 1674.43 426.429C1674.79 426.815 1674.97 427.355 1674.97 428.049V430.039C1674.97 430.172 1674.99 430.265 1675.04 430.319C1675.09 430.365 1675.17 430.389 1675.27 430.389H1675.53V431.309C1675.49 431.315 1675.42 431.322 1675.33 431.329C1675.24 431.342 1675.15 431.349 1675.06 431.349C1674.42 431.349 1674.03 431.075 1673.9 430.529C1673.77 430.795 1673.56 431.012 1673.27 431.179C1672.98 431.345 1672.64 431.429 1672.25 431.429ZM1672.46 430.509C1672.89 430.509 1673.22 430.395 1673.45 430.169C1673.68 429.935 1673.79 429.622 1673.79 429.229V428.869L1672.46 429.149C1672.18 429.209 1671.98 429.295 1671.87 429.409C1671.76 429.522 1671.7 429.675 1671.7 429.869C1671.7 430.069 1671.77 430.225 1671.9 430.339C1672.03 430.452 1672.22 430.509 1672.46 430.509ZM1676.35 431.309V425.969H1677.43L1677.46 426.929C1677.6 426.562 1677.81 426.292 1678.1 426.119C1678.39 425.939 1678.72 425.849 1679.1 425.849C1679.49 425.849 1679.81 425.935 1680.07 426.109C1680.32 426.282 1680.51 426.522 1680.64 426.829C1680.76 427.129 1680.83 427.472 1680.83 427.859V431.309H1679.65V428.139C1679.65 427.285 1679.33 426.859 1678.7 426.859C1678.38 426.859 1678.1 426.972 1677.87 427.199C1677.64 427.419 1677.53 427.745 1677.53 428.179V431.309H1676.35ZM1683.68 431.429C1683.01 431.429 1682.48 431.182 1682.09 430.689C1681.7 430.195 1681.5 429.512 1681.5 428.639C1681.5 427.765 1681.7 427.082 1682.09 426.589C1682.48 426.095 1683.01 425.849 1683.68 425.849C1684.05 425.849 1684.38 425.935 1684.65 426.109C1684.92 426.275 1685.13 426.479 1685.26 426.719V424.209H1686.44V431.309H1685.32L1685.29 430.479C1685.14 430.765 1684.93 430.995 1684.66 431.169C1684.39 431.342 1684.06 431.429 1683.68 431.429ZM1683.96 430.369C1684.35 430.369 1684.67 430.215 1684.9 429.909C1685.14 429.602 1685.26 429.179 1685.26 428.639C1685.26 428.092 1685.14 427.669 1684.9 427.369C1684.67 427.062 1684.35 426.909 1683.94 426.909C1683.55 426.909 1683.25 427.059 1683.04 427.359C1682.83 427.659 1682.73 428.085 1682.73 428.639C1682.73 429.185 1682.84 429.612 1683.05 429.919C1683.26 430.219 1683.57 430.369 1683.96 430.369ZM1689.85 431.429C1689.35 431.429 1688.93 431.349 1688.59 431.189C1688.25 431.029 1687.98 430.812 1687.8 430.539C1687.61 430.265 1687.5 429.962 1687.48 429.629L1688.66 429.579C1688.71 429.832 1688.83 430.035 1689.03 430.189C1689.22 430.335 1689.5 430.409 1689.86 430.409C1690.53 430.409 1690.87 430.229 1690.87 429.869C1690.87 429.755 1690.84 429.659 1690.78 429.579C1690.72 429.499 1690.61 429.432 1690.45 429.379C1690.28 429.319 1690.03 429.255 1689.71 429.189C1689.17 429.089 1688.75 428.969 1688.45 428.829C1688.14 428.682 1687.92 428.502 1687.79 428.289C1687.66 428.075 1687.6 427.815 1687.6 427.509C1687.6 427.042 1687.77 426.649 1688.13 426.329C1688.49 426.009 1689.02 425.849 1689.73 425.849C1690.23 425.849 1690.65 425.932 1690.97 426.099C1691.29 426.265 1691.53 426.482 1691.7 426.749C1691.87 427.015 1691.98 427.302 1692.02 427.609L1690.83 427.669C1690.78 427.435 1690.66 427.245 1690.48 427.099C1690.29 426.945 1690.04 426.869 1689.74 426.869C1689.41 426.869 1689.17 426.932 1689.03 427.059C1688.88 427.185 1688.81 427.335 1688.81 427.509C1688.81 427.722 1688.89 427.879 1689.07 427.979C1689.25 428.072 1689.58 428.165 1690.06 428.259C1690.58 428.359 1690.99 428.475 1691.29 428.609C1691.58 428.742 1691.78 428.909 1691.9 429.109C1692.02 429.309 1692.08 429.559 1692.08 429.859C1692.08 430.345 1691.88 430.729 1691.48 431.009C1691.08 431.289 1690.53 431.429 1689.85 431.429ZM1659.97 440.309L1658.96 434.969H1660.17L1660.73 438.769L1661.35 435.729H1662.25L1662.87 438.769L1663.43 434.969H1664.64L1663.64 440.309H1662.41L1661.8 437.429L1661.19 440.309H1659.97ZM1665.11 440.309V439.349H1667.15V435.929H1665.21V434.969H1668.33V439.349H1670.07V440.309H1665.11ZM1667.1 434.259V433.139H1668.3V434.259H1667.1ZM1673.74 440.309C1673.17 440.309 1672.74 440.179 1672.47 439.919C1672.2 439.652 1672.06 439.249 1672.06 438.709V435.929H1670.45V434.969H1672.06V433.719H1673.24V434.969H1675.27V435.929H1673.24V438.619C1673.24 439.105 1673.48 439.349 1673.95 439.349H1675.27V440.309H1673.74ZM1676.45 440.309V433.209H1677.63V435.749C1677.77 435.435 1677.97 435.209 1678.24 435.069C1678.51 434.922 1678.82 434.849 1679.18 434.849C1679.73 434.849 1680.15 435.035 1680.43 435.409C1680.71 435.775 1680.85 436.262 1680.85 436.869V440.309H1679.67V437.139C1679.67 436.685 1679.59 436.359 1679.44 436.159C1679.28 435.959 1679.06 435.859 1678.77 435.859C1678.43 435.859 1678.16 435.972 1677.95 436.199C1677.73 436.425 1677.63 436.759 1677.63 437.199V440.309H1676.45ZM1659.44 450.809V443.969H1660.57L1660.59 444.839C1660.91 444.179 1661.44 443.849 1662.2 443.849C1662.69 443.849 1663.1 443.975 1663.42 444.229C1663.74 444.475 1663.98 444.812 1664.14 445.239C1664.3 445.659 1664.38 446.125 1664.38 446.639C1664.38 447.152 1664.3 447.619 1664.14 448.039C1663.98 448.459 1663.74 448.795 1663.42 449.049C1663.1 449.302 1662.69 449.429 1662.2 449.429C1661.84 449.429 1661.53 449.359 1661.26 449.219C1660.98 449.072 1660.77 448.859 1660.62 448.579V450.809H1659.44ZM1661.9 448.369C1662.29 448.369 1662.6 448.225 1662.82 447.939C1663.04 447.645 1663.15 447.212 1663.15 446.639C1663.15 446.065 1663.04 445.635 1662.82 445.349C1662.6 445.055 1662.29 444.909 1661.9 444.909C1661.52 444.909 1661.21 445.052 1660.97 445.339C1660.73 445.625 1660.62 446.059 1660.62 446.639C1660.62 447.219 1660.73 447.652 1660.97 447.939C1661.21 448.225 1661.52 448.369 1661.9 448.369ZM1665.17 449.309V448.349H1666.49V444.929H1665.17V443.969H1667.39L1667.46 444.999C1667.64 444.312 1668.06 443.969 1668.74 443.969H1669.91V444.959H1668.81C1668.05 444.959 1667.67 445.369 1667.67 446.189V448.349H1669.32V449.309H1665.17ZM1670.71 449.309V448.349H1672.75V444.929H1670.81V443.969H1673.93V448.349H1675.67V449.309H1670.71ZM1672.7 443.259V442.139H1673.9V443.259H1672.7ZM1678.09 449.429C1677.42 449.429 1676.89 449.182 1676.5 448.689C1676.1 448.195 1675.91 447.512 1675.91 446.639C1675.91 445.765 1676.1 445.082 1676.5 444.589C1676.89 444.095 1677.42 443.849 1678.09 443.849C1678.46 443.849 1678.78 443.935 1679.06 444.109C1679.33 444.275 1679.53 444.479 1679.67 444.719V442.209H1680.85V449.309H1679.73L1679.7 448.479C1679.55 448.765 1679.34 448.995 1679.07 449.169C1678.79 449.342 1678.47 449.429 1678.09 449.429ZM1678.37 448.369C1678.76 448.369 1679.07 448.215 1679.31 447.909C1679.55 447.602 1679.67 447.179 1679.67 446.639C1679.67 446.092 1679.55 445.669 1679.31 445.369C1679.07 445.062 1678.75 444.909 1678.35 444.909C1677.96 444.909 1677.66 445.059 1677.45 445.359C1677.24 445.659 1677.14 446.085 1677.14 446.639C1677.14 447.185 1677.24 447.612 1677.46 447.919C1677.67 448.219 1677.97 448.369 1678.37 448.369ZM1684.23 449.429C1683.73 449.429 1683.29 449.315 1682.91 449.089C1682.54 448.855 1682.25 448.532 1682.04 448.119C1681.83 447.699 1681.73 447.205 1681.73 446.639C1681.73 446.079 1681.83 445.592 1682.04 445.179C1682.25 444.759 1682.53 444.432 1682.9 444.199C1683.27 443.965 1683.71 443.849 1684.21 443.849C1684.69 443.849 1685.11 443.962 1685.48 444.189C1685.85 444.415 1686.14 444.739 1686.35 445.159C1686.56 445.579 1686.67 446.079 1686.67 446.659V446.969H1682.95C1682.98 447.429 1683.11 447.779 1683.34 448.019C1683.57 448.252 1683.88 448.369 1684.25 448.369C1684.54 448.369 1684.77 448.302 1684.96 448.169C1685.15 448.035 1685.28 447.855 1685.36 447.629L1686.57 447.719C1686.4 448.252 1686.11 448.672 1685.71 448.979C1685.32 449.279 1684.82 449.429 1684.23 449.429ZM1682.96 446.109H1685.39C1685.36 445.702 1685.23 445.402 1685.01 445.209C1684.8 445.009 1684.53 444.909 1684.2 444.909C1683.86 444.909 1683.58 445.012 1683.37 445.219C1683.16 445.419 1683.02 445.715 1682.96 446.109Z" fill="white"/>
<rect x="1654.68" y="413.309" width="0.371094" height="42.5996" fill="#D9D9D9"/>
<rect x="1709.19" y="455.537" width="0.371094" height="54.3203" transform="rotate(90 1709.19 455.537)" fill="#D9D9D9"/>
<path d="M1655.05 526.197H1666.09V537.006H1655.05V526.197Z" fill="#D9D9D9"/>
<path d="M1700.32 455.909L1698.27 461.686L1672.05 535.545L1670 541.322H1678.8L1680.85 535.545L1687.48 516.856L1709.11 455.908L1700.32 455.909Z" fill="#D9D9D9"/>
<rect x="1737.53" y="470.219" width="42.2148" height="71.0645" fill="#C5C5E0" fill-opacity="0.59"/>
<path d="M351.969 616.41C351.969 614.201 353.76 612.41 355.969 612.41H1521.97C1524.18 612.41 1525.97 614.201 1525.97 616.41V621.323H351.969V616.41Z" fill="#E3E3F3"/>
<path d="M362.141 607.496C362.141 605.287 363.931 603.496 366.141 603.496H1532.14C1534.35 603.496 1536.14 605.287 1536.14 607.496V612.409H362.141V607.496Z" fill="#DFDFF0"/>
<path d="M373.258 598.582C373.258 596.373 375.049 594.582 377.258 594.582H1543.26C1545.47 594.582 1547.26 596.373 1547.26 598.582V603.495H373.258V598.582Z" fill="#DFDFF0"/>
<path d="M382.957 589.668C382.957 587.459 384.748 585.668 386.957 585.668H1552.96C1555.17 585.668 1556.96 587.459 1556.96 589.668V594.581H382.957V589.668Z" fill="#E3E3F3"/>
<path d="M392.895 580.758C392.895 578.549 394.685 576.758 396.895 576.758H1562.89C1565.1 576.758 1566.89 578.549 1566.89 580.758V585.671H392.895V580.758Z" fill="#DFDFF0"/>
<path d="M403.305 571.844C403.305 569.635 405.096 567.844 407.305 567.844H1573.3C1575.51 567.844 1577.3 569.635 1577.3 571.844V576.757H403.305V571.844Z" fill="#E3E3F3"/>
<path d="M412.531 562.93C412.531 560.721 414.322 558.93 416.531 558.93H1582.53C1584.74 558.93 1586.53 560.721 1586.53 562.93V567.843H412.531V562.93Z" fill="#DFDFF0"/>
<path d="M422.23 554.016C422.23 551.806 424.021 550.016 426.23 550.016H1592.23C1594.44 550.016 1596.23 551.806 1596.23 554.016V558.929H422.23V554.016Z" fill="#DFDFF0"/>
<path d="M433.113 545.32C433.113 543.111 434.904 541.32 437.113 541.32H1603.11C1605.32 541.32 1607.11 543.111 1607.11 545.32V550.233H433.113V545.32Z" fill="#E3E3F3"/>
<path d="M513.633 616.412C513.633 614.203 515.424 612.412 517.633 612.412H545.633C547.842 612.412 549.633 614.203 549.633 616.412V621.325H513.633V616.412Z" fill="#F9493C"/>
<path d="M523.805 607.498C523.805 605.289 525.596 603.498 527.805 603.498H555.805C558.014 603.498 559.805 605.289 559.805 607.498V612.411H523.805V607.498Z" fill="#EB4C40"/>
<path d="M534.922 598.584C534.922 596.375 536.713 594.584 538.922 594.584H566.922C569.131 594.584 570.922 596.375 570.922 598.584V603.497H534.922V598.584Z" fill="#EB4C40"/>
<path d="M544.621 589.67C544.621 587.461 546.412 585.67 548.621 585.67H576.621C578.83 585.67 580.621 587.461 580.621 589.67V594.583H544.621V589.67Z" fill="#F9493C"/>
<path d="M554.559 580.76C554.559 578.551 556.349 576.76 558.559 576.76H586.559C588.768 576.76 590.559 578.551 590.559 580.76V585.673H554.559V580.76Z" fill="#EB4C40"/>
<path d="M564.969 571.846C564.969 569.637 566.76 567.846 568.969 567.846H596.969C599.178 567.846 600.969 569.637 600.969 571.846V576.759H564.969V571.846Z" fill="#F9493C"/>
<path d="M574.195 562.932C574.195 560.723 575.986 558.932 578.195 558.932H606.195C608.404 558.932 610.195 560.723 610.195 562.932V567.845H574.195V562.932Z" fill="#EB4C40"/>
<path d="M583.895 554.018C583.895 551.808 585.685 550.018 587.895 550.018H615.895C618.104 550.018 619.895 551.808 619.895 554.018V558.931H583.895V554.018Z" fill="#EB4C40"/>
<path d="M594.777 545.322C594.777 543.113 596.568 541.322 598.777 541.322H626.777C628.986 541.322 630.777 543.113 630.777 545.322V550.235H594.777V545.322Z" fill="#F9493C"/>
<path d="M532.777 616.412C532.777 614.203 534.568 612.412 536.777 612.412H564.777C566.986 612.412 568.777 614.203 568.777 616.412V621.325H532.777V616.412Z" fill="#FF9548"/>
<path d="M542.949 607.498C542.949 605.289 544.74 603.498 546.949 603.498H574.949C577.158 603.498 578.949 605.289 578.949 607.498V612.411H542.949V607.498Z" fill="#FD9042"/>
<path d="M554.066 598.584C554.066 596.375 555.857 594.584 558.066 594.584H586.066C588.276 594.584 590.066 596.375 590.066 598.584V603.497H554.066V598.584Z" fill="#FD9042"/>
<path d="M563.766 589.67C563.766 587.461 565.556 585.67 567.766 585.67H595.766C597.975 585.67 599.766 587.461 599.766 589.67V594.583H563.766V589.67Z" fill="#FF9548"/>
<path d="M573.703 580.76C573.703 578.551 575.494 576.76 577.703 576.76H605.703C607.912 576.76 609.703 578.551 609.703 580.76V585.673H573.703V580.76Z" fill="#FD9042"/>
<path d="M584.113 571.846C584.113 569.637 585.904 567.846 588.113 567.846H616.113C618.322 567.846 620.113 569.637 620.113 571.846V576.759H584.113V571.846Z" fill="#FF9548"/>
<path d="M593.34 562.932C593.34 560.723 595.131 558.932 597.34 558.932H625.34C627.549 558.932 629.34 560.723 629.34 562.932V567.845H593.34V562.932Z" fill="#FD9042"/>
<path d="M603.039 554.018C603.039 551.808 604.83 550.018 607.039 550.018H635.039C637.248 550.018 639.039 551.808 639.039 554.018V558.931H603.039V554.018Z" fill="#FD9042"/>
<path d="M613.922 545.322C613.922 543.113 615.713 541.322 617.922 541.322H645.922C648.131 541.322 649.922 543.113 649.922 545.322V550.235H613.922V545.322Z" fill="#FF9548"/>
<path d="M551.922 616.412C551.922 614.203 553.713 612.412 555.922 612.412H583.922C586.131 612.412 587.922 614.203 587.922 616.412V621.325H551.922V616.412Z" fill="#FFF654"/>
<path d="M562.094 607.498C562.094 605.289 563.885 603.498 566.094 603.498H594.094C596.303 603.498 598.094 605.289 598.094 607.498V612.411H562.094V607.498Z" fill="#FCF248"/>
<path d="M573.211 598.584C573.211 596.375 575.002 594.584 577.211 594.584H605.211C607.42 594.584 609.211 596.375 609.211 598.584V603.497H573.211V598.584Z" fill="#FCF248"/>
<path d="M582.91 589.67C582.91 587.461 584.701 585.67 586.91 585.67H614.91C617.119 585.67 618.91 587.461 618.91 589.67V594.583H582.91V589.67Z" fill="#FFF654"/>
<path d="M592.848 580.76C592.848 578.551 594.639 576.76 596.848 576.76H624.848C627.057 576.76 628.848 578.551 628.848 580.76V585.673H592.848V580.76Z" fill="#FCF248"/>
<path d="M603.258 571.846C603.258 569.637 605.049 567.846 607.258 567.846H635.258C637.467 567.846 639.258 569.637 639.258 571.846V576.759H603.258V571.846Z" fill="#FFF654"/>
<path d="M612.484 562.932C612.484 560.723 614.275 558.932 616.484 558.932H644.484C646.694 558.932 648.484 560.723 648.484 562.932V567.845H612.484V562.932Z" fill="#FCF248"/>
<path d="M622.184 554.018C622.184 551.808 623.974 550.018 626.184 550.018H654.184C656.393 550.018 658.184 551.808 658.184 554.018V558.931H622.184V554.018Z" fill="#FCF248"/>
<path d="M633.066 545.322C633.066 543.113 634.857 541.322 637.066 541.322H665.066C667.276 541.322 669.066 543.113 669.066 545.322V550.235H633.066V545.322Z" fill="#FFF654"/>
<path d="M571.066 616.412C571.066 614.203 572.857 612.412 575.066 612.412H603.066C605.276 612.412 607.066 614.203 607.066 616.412V621.325H571.066V616.412Z" fill="#52CC73"/>
<path d="M581.238 607.498C581.238 605.289 583.029 603.498 585.238 603.498H613.238C615.447 603.498 617.238 605.289 617.238 607.498V612.411H581.238V607.498Z" fill="#3FC964"/>
<path d="M592.355 598.584C592.355 596.375 594.146 594.584 596.355 594.584H624.355C626.565 594.584 628.355 596.375 628.355 598.584V603.497H592.355V598.584Z" fill="#3FC964"/>
<path d="M602.055 589.67C602.055 587.461 603.846 585.67 606.055 585.67H634.055C636.264 585.67 638.055 587.461 638.055 589.67V594.583H602.055V589.67Z" fill="#52CC73"/>
<path d="M611.992 580.76C611.992 578.551 613.783 576.76 615.992 576.76H643.992C646.201 576.76 647.992 578.551 647.992 580.76V585.673H611.992V580.76Z" fill="#3FC964"/>
<path d="M622.402 571.846C622.402 569.637 624.193 567.846 626.402 567.846H654.402C656.611 567.846 658.402 569.637 658.402 571.846V576.759H622.402V571.846Z" fill="#52CC73"/>
<path d="M631.629 562.932C631.629 560.723 633.42 558.932 635.629 558.932H663.629C665.838 558.932 667.629 560.723 667.629 562.932V567.845H631.629V562.932Z" fill="#3FC964"/>
<path d="M641.328 554.018C641.328 551.808 643.119 550.018 645.328 550.018H673.328C675.537 550.018 677.328 551.808 677.328 554.018V558.931H641.328V554.018Z" fill="#3FC964"/>
<path d="M652.211 545.322C652.211 543.113 654.002 541.322 656.211 541.322H684.211C686.42 541.322 688.211 543.113 688.211 545.322V550.235H652.211V545.322Z" fill="#52CC73"/>
<path d="M590.211 616.412C590.211 614.203 592.002 612.412 594.211 612.412H622.211C624.42 612.412 626.211 614.203 626.211 616.412V621.325H590.211V616.412Z" fill="#4DB6E7"/>
<path d="M600.383 607.498C600.383 605.289 602.174 603.498 604.383 603.498H632.383C634.592 603.498 636.383 605.289 636.383 607.498V612.411H600.383V607.498Z" fill="#46ACDB"/>
<path d="M611.5 598.584C611.5 596.375 613.291 594.584 615.5 594.584H643.5C645.709 594.584 647.5 596.375 647.5 598.584V603.497H611.5V598.584Z" fill="#46ACDB"/>
<path d="M621.199 589.67C621.199 587.461 622.99 585.67 625.199 585.67H653.199C655.408 585.67 657.199 587.461 657.199 589.67V594.583H621.199V589.67Z" fill="#4DB6E7"/>
<path d="M631.137 580.76C631.137 578.551 632.928 576.76 635.137 576.76H663.137C665.346 576.76 667.137 578.551 667.137 580.76V585.673H631.137V580.76Z" fill="#46ACDB"/>
<path d="M641.547 571.846C641.547 569.637 643.338 567.846 645.547 567.846H673.547C675.756 567.846 677.547 569.637 677.547 571.846V576.759H641.547V571.846Z" fill="#4DB6E7"/>
<path d="M650.773 562.932C650.773 560.723 652.564 558.932 654.773 558.932H682.773C684.983 558.932 686.773 560.723 686.773 562.932V567.845H650.773V562.932Z" fill="#46ACDB"/>
<path d="M660.473 554.018C660.473 551.808 662.264 550.018 664.473 550.018H692.473C694.682 550.018 696.473 551.808 696.473 554.018V558.931H660.473V554.018Z" fill="#46ACDB"/>
<path d="M671.355 545.322C671.355 543.113 673.146 541.322 675.355 541.322H703.355C705.565 541.322 707.355 543.113 707.355 545.322V550.235H671.355V545.322Z" fill="#4DB6E7"/>
<path d="M609.355 616.412C609.355 614.203 611.146 612.412 613.355 612.412H641.355C643.565 612.412 645.355 614.203 645.355 616.412V621.325H609.355V616.412Z" fill="#956CEE"/>
<path d="M619.527 607.498C619.527 605.289 621.318 603.498 623.527 603.498H651.527C653.736 603.498 655.527 605.289 655.527 607.498V612.411H619.527V607.498Z" fill="#9265F5"/>
<path d="M630.645 598.584C630.645 596.375 632.435 594.584 634.645 594.584H662.645C664.854 594.584 666.645 596.375 666.645 598.584V603.497H630.645V598.584Z" fill="#9265F5"/>
<path d="M640.344 589.67C640.344 587.461 642.135 585.67 644.344 585.67H672.344C674.553 585.67 676.344 587.461 676.344 589.67V594.583H640.344V589.67Z" fill="#956CEE"/>
<path d="M650.281 580.76C650.281 578.551 652.072 576.76 654.281 576.76H682.281C684.49 576.76 686.281 578.551 686.281 580.76V585.673H650.281V580.76Z" fill="#9265F5"/>
<path d="M660.691 571.846C660.691 569.637 662.482 567.846 664.691 567.846H692.691C694.901 567.846 696.691 569.637 696.691 571.846V576.759H660.691V571.846Z" fill="#956CEE"/>
<path d="M669.918 562.932C669.918 560.723 671.709 558.932 673.918 558.932H701.918C704.127 558.932 705.918 560.723 705.918 562.932V567.845H669.918V562.932Z" fill="#9265F5"/>
<path d="M679.617 554.018C679.617 551.808 681.408 550.018 683.617 550.018H711.617C713.826 550.018 715.617 551.808 715.617 554.018V558.931H679.617V554.018Z" fill="#9265F5"/>
<path d="M690.5 545.322C690.5 543.113 692.291 541.322 694.5 541.322H722.5C724.709 541.322 726.5 543.113 726.5 545.322V550.235H690.5V545.322Z" fill="#956CEE"/>
<path d="M628.5 616.412C628.5 614.203 630.291 612.412 632.5 612.412H660.5C662.709 612.412 664.5 614.203 664.5 616.412V621.325H628.5V616.412Z" fill="white"/>
<path d="M638.672 607.498C638.672 605.289 640.463 603.498 642.672 603.498H670.672C672.881 603.498 674.672 605.289 674.672 607.498V612.411H638.672V607.498Z" fill="#F9F9FF"/>
<path d="M649.789 598.584C649.789 596.375 651.58 594.584 653.789 594.584H681.789C683.998 594.584 685.789 596.375 685.789 598.584V603.497H649.789V598.584Z" fill="#F9F9FF"/>
<path d="M659.488 589.67C659.488 587.461 661.279 585.67 663.488 585.67H691.488C693.697 585.67 695.488 587.461 695.488 589.67V594.583H659.488V589.67Z" fill="white"/>
<path d="M669.426 580.76C669.426 578.551 671.217 576.76 673.426 576.76H701.426C703.635 576.76 705.426 578.551 705.426 580.76V585.673H669.426V580.76Z" fill="#F9F9FF"/>
<path d="M679.836 571.846C679.836 569.637 681.627 567.846 683.836 567.846H711.836C714.045 567.846 715.836 569.637 715.836 571.846V576.759H679.836V571.846Z" fill="white"/>
<path d="M689.062 562.932C689.062 560.723 690.853 558.932 693.062 558.932H721.062C723.272 558.932 725.062 560.723 725.062 562.932V567.845H689.062V562.932Z" fill="#F9F9FF"/>
<path d="M698.762 554.018C698.762 551.808 700.553 550.018 702.762 550.018H730.762C732.971 550.018 734.762 551.808 734.762 554.018V558.931H698.762V554.018Z" fill="#F9F9FF"/>
<path d="M709.645 545.322C709.645 543.113 711.435 541.322 713.645 541.322H741.645C743.854 541.322 745.645 543.113 745.645 545.322V550.235H709.645V545.322Z" fill="white"/>
<path d="M647.645 616.412C647.645 614.203 649.435 612.412 651.645 612.412H679.645C681.854 612.412 683.645 614.203 683.645 616.412V621.325H647.645V616.412Z" fill="#FFACD0"/>
<path d="M657.816 607.498C657.816 605.289 659.607 603.498 661.816 603.498H689.816C692.026 603.498 693.816 605.289 693.816 607.498V612.411H657.816V607.498Z" fill="#FF9EC8"/>
<path d="M668.934 598.584C668.934 596.375 670.724 594.584 672.934 594.584H700.934C703.143 594.584 704.934 596.375 704.934 598.584V603.497H668.934V598.584Z" fill="#FF9EC8"/>
<path d="M678.633 589.67C678.633 587.461 680.424 585.67 682.633 585.67H710.633C712.842 585.67 714.633 587.461 714.633 589.67V594.583H678.633V589.67Z" fill="#FFACD0"/>
<path d="M688.57 580.76C688.57 578.551 690.361 576.76 692.57 576.76H720.57C722.779 576.76 724.57 578.551 724.57 580.76V585.673H688.57V580.76Z" fill="#FF9EC8"/>
<path d="M698.98 571.846C698.98 569.637 700.771 567.846 702.98 567.846H730.98C733.19 567.846 734.98 569.637 734.98 571.846V576.759H698.98V571.846Z" fill="#FFACD0"/>
<path d="M708.207 562.932C708.207 560.723 709.998 558.932 712.207 558.932H740.207C742.416 558.932 744.207 560.723 744.207 562.932V567.845H708.207V562.932Z" fill="#FF9EC8"/>
<path d="M717.906 554.018C717.906 551.808 719.697 550.018 721.906 550.018H749.906C752.115 550.018 753.906 551.808 753.906 554.018V558.931H717.906V554.018Z" fill="#FF9EC8"/>
<path d="M728.789 545.322C728.789 543.113 730.58 541.322 732.789 541.322H760.789C762.998 541.322 764.789 543.113 764.789 545.322V550.235H728.789V545.322Z" fill="#FFACD0"/>
<path d="M666.789 616.412C666.789 614.203 668.58 612.412 670.789 612.412H698.789C700.998 612.412 702.789 614.203 702.789 616.412V621.325H666.789V616.412Z" fill="#73C4F2"/>
<path d="M676.961 607.498C676.961 605.289 678.752 603.498 680.961 603.498H708.961C711.17 603.498 712.961 605.289 712.961 607.498V612.411H676.961V607.498Z" fill="#66BEF2"/>
<path d="M688.078 598.584C688.078 596.375 689.869 594.584 692.078 594.584H720.078C722.287 594.584 724.078 596.375 724.078 598.584V603.497H688.078V598.584Z" fill="#66BEF2"/>
<path d="M697.777 589.67C697.777 587.461 699.568 585.67 701.777 585.67H729.777C731.986 585.67 733.777 587.461 733.777 589.67V594.583H697.777V589.67Z" fill="#73C4F2"/>
<path d="M707.715 580.76C707.715 578.551 709.506 576.76 711.715 576.76H739.715C741.924 576.76 743.715 578.551 743.715 580.76V585.673H707.715V580.76Z" fill="#66BEF2"/>
<path d="M718.125 571.846C718.125 569.637 719.916 567.846 722.125 567.846H750.125C752.334 567.846 754.125 569.637 754.125 571.846V576.759H718.125V571.846Z" fill="#73C4F2"/>
<path d="M727.352 562.932C727.352 560.723 729.142 558.932 731.352 558.932H759.352C761.561 558.932 763.352 560.723 763.352 562.932V567.845H727.352V562.932Z" fill="#66BEF2"/>
<path d="M737.051 554.018C737.051 551.808 738.842 550.018 741.051 550.018H769.051C771.26 550.018 773.051 551.808 773.051 554.018V558.931H737.051V554.018Z" fill="#66BEF2"/>
<path d="M747.934 545.322C747.934 543.113 749.724 541.322 751.934 541.322H779.934C782.143 541.322 783.934 543.113 783.934 545.322V550.235H747.934V545.322Z" fill="#73C4F2"/>
<path d="M685.934 616.412C685.934 614.203 687.724 612.412 689.934 612.412H717.934C720.143 612.412 721.934 614.203 721.934 616.412V621.325H685.934V616.412Z" fill="#715238"/>
<path d="M696.105 607.498C696.105 605.289 697.896 603.498 700.105 603.498H728.105C730.315 603.498 732.105 605.289 732.105 607.498V612.411H696.105V607.498Z" fill="#664931"/>
<path d="M707.223 598.584C707.223 596.375 709.014 594.584 711.223 594.584H739.223C741.432 594.584 743.223 596.375 743.223 598.584V603.497H707.223V598.584Z" fill="#664931"/>
<path d="M716.922 589.67C716.922 587.461 718.713 585.67 720.922 585.67H748.922C751.131 585.67 752.922 587.461 752.922 589.67V594.583H716.922V589.67Z" fill="#715238"/>
<path d="M726.859 580.76C726.859 578.551 728.65 576.76 730.859 576.76H758.859C761.069 576.76 762.859 578.551 762.859 580.76V585.673H726.859V580.76Z" fill="#664931"/>
<path d="M737.27 571.846C737.27 569.637 739.06 567.846 741.27 567.846H769.27C771.479 567.846 773.27 569.637 773.27 571.846V576.759H737.27V571.846Z" fill="#715238"/>
<path d="M746.496 562.932C746.496 560.723 748.287 558.932 750.496 558.932H778.496C780.705 558.932 782.496 560.723 782.496 562.932V567.845H746.496V562.932Z" fill="#664931"/>
<path d="M756.195 554.018C756.195 551.808 757.986 550.018 760.195 550.018H788.195C790.404 550.018 792.195 551.808 792.195 554.018V558.931H756.195V554.018Z" fill="#664931"/>
<path d="M767.078 545.322C767.078 543.113 768.869 541.322 771.078 541.322H799.078C801.287 541.322 803.078 543.113 803.078 545.322V550.235H767.078V545.322Z" fill="#715238"/>
<path d="M705.078 616.412C705.078 614.203 706.869 612.412 709.078 612.412H737.078C739.287 612.412 741.078 614.203 741.078 616.412V621.325H705.078V616.412Z" fill="#333333"/>
<path d="M715.25 607.498C715.25 605.289 717.041 603.498 719.25 603.498H747.25C749.459 603.498 751.25 605.289 751.25 607.498V612.411H715.25V607.498Z" fill="#222222"/>
<path d="M726.367 598.584C726.367 596.375 728.158 594.584 730.367 594.584H758.367C760.576 594.584 762.367 596.375 762.367 598.584V603.497H726.367V598.584Z" fill="#222222"/>
<path d="M736.066 589.67C736.066 587.461 737.857 585.67 740.066 585.67H768.066C770.276 585.67 772.066 587.461 772.066 589.67V594.583H736.066V589.67Z" fill="#333333"/>
<path d="M746.004 580.76C746.004 578.551 747.795 576.76 750.004 576.76H778.004C780.213 576.76 782.004 578.551 782.004 580.76V585.673H746.004V580.76Z" fill="#222222"/>
<path d="M756.414 571.846C756.414 569.637 758.205 567.846 760.414 567.846H788.414C790.623 567.846 792.414 569.637 792.414 571.846V576.759H756.414V571.846Z" fill="#333333"/>
<path d="M765.641 562.932C765.641 560.723 767.431 558.932 769.641 558.932H797.641C799.85 558.932 801.641 560.723 801.641 562.932V567.845H765.641V562.932Z" fill="#222222"/>
<path d="M775.34 554.018C775.34 551.808 777.131 550.018 779.34 550.018H807.34C809.549 550.018 811.34 551.808 811.34 554.018V558.931H775.34V554.018Z" fill="#222222"/>
<path d="M786.223 545.322C786.223 543.113 788.014 541.322 790.223 541.322H818.223C820.432 541.322 822.223 543.113 822.223 545.322V550.235H786.223V545.322Z" fill="#333333"/>
<path d="M724.223 616.412C724.223 614.203 726.014 612.412 728.223 612.412H756.223C758.432 612.412 760.223 614.203 760.223 616.412V621.325H724.223V616.412Z" fill="#E3E3F3"/>
<path d="M734.395 607.498C734.395 605.289 736.185 603.498 738.395 603.498H766.395C768.604 603.498 770.395 605.289 770.395 607.498V612.411H734.395V607.498Z" fill="#DFDFF0"/>
<path d="M745.512 598.584C745.512 596.375 747.303 594.584 749.512 594.584H777.512C779.721 594.584 781.512 596.375 781.512 598.584V603.497H745.512V598.584Z" fill="#DFDFF0"/>
<path d="M755.211 589.67C755.211 587.461 757.002 585.67 759.211 585.67H787.211C789.42 585.67 791.211 587.461 791.211 589.67V594.583H755.211V589.67Z" fill="#E3E3F3"/>
<path d="M765.148 580.76C765.148 578.551 766.939 576.76 769.148 576.76H797.148C799.358 576.76 801.148 578.551 801.148 580.76V585.673H765.148V580.76Z" fill="#DFDFF0"/>
<path d="M775.559 571.846C775.559 569.637 777.349 567.846 779.559 567.846H807.559C809.768 567.846 811.559 569.637 811.559 571.846V576.759H775.559V571.846Z" fill="#E3E3F3"/>
<path d="M784.785 562.932C784.785 560.723 786.576 558.932 788.785 558.932H816.785C818.994 558.932 820.785 560.723 820.785 562.932V567.845H784.785V562.932Z" fill="#DFDFF0"/>
<path d="M794.484 554.018C794.484 551.808 796.275 550.018 798.484 550.018H826.484C828.694 550.018 830.484 551.808 830.484 554.018V558.931H794.484V554.018Z" fill="#DFDFF0"/>
<path d="M805.367 545.322C805.367 543.113 807.158 541.322 809.367 541.322H837.367C839.576 541.322 841.367 543.113 841.367 545.322V550.235H805.367V545.322Z" fill="#E3E3F3"/>
<path d="M1081.78 616.09C1081.78 613.881 1083.57 612.09 1085.78 612.09H1113.78C1115.99 612.09 1117.78 613.881 1117.78 616.09V621.003H1081.78V616.09Z" fill="#F9493C"/>
<path d="M1091.95 607.176C1091.95 604.967 1093.74 603.176 1095.95 603.176H1123.95C1126.16 603.176 1127.95 604.967 1127.95 607.176V612.089H1091.95V607.176Z" fill="#EB4C40"/>
<path d="M1103.07 598.262C1103.07 596.053 1104.86 594.262 1107.07 594.262H1135.07C1137.28 594.262 1139.07 596.053 1139.07 598.262V603.175H1103.07V598.262Z" fill="#EB4C40"/>
<path d="M1112.77 589.348C1112.77 587.139 1114.56 585.348 1116.77 585.348H1144.77C1146.98 585.348 1148.77 587.139 1148.77 589.348V594.261H1112.77V589.348Z" fill="#F9493C"/>
<path d="M1122.71 580.438C1122.71 578.228 1124.5 576.438 1126.71 576.438H1154.71C1156.92 576.438 1158.71 578.228 1158.71 580.438V585.351H1122.71V580.438Z" fill="#EB4C40"/>
<path d="M1133.12 571.523C1133.12 569.314 1134.91 567.523 1137.12 567.523H1165.12C1167.33 567.523 1169.12 569.314 1169.12 571.523V576.437H1133.12V571.523Z" fill="#F9493C"/>
<path d="M1142.34 562.609C1142.34 560.4 1144.13 558.609 1146.34 558.609H1174.34C1176.55 558.609 1178.34 560.4 1178.34 562.609V567.522H1142.34V562.609Z" fill="#EB4C40"/>
<path d="M1152.04 553.695C1152.04 551.486 1153.83 549.695 1156.04 549.695H1184.04C1186.25 549.695 1188.04 551.486 1188.04 553.695V558.608H1152.04V553.695Z" fill="#EB4C40"/>
<path d="M1162.93 545C1162.93 542.791 1164.72 541 1166.93 541H1194.93C1197.13 541 1198.93 542.791 1198.93 545V549.913H1162.93V545Z" fill="#F9493C"/>
<path d="M1100.93 616.09C1100.93 613.881 1102.72 612.09 1104.93 612.09H1132.93C1135.13 612.09 1136.93 613.881 1136.93 616.09V621.003H1100.93V616.09Z" fill="#FF9548"/>
<path d="M1111.1 607.176C1111.1 604.967 1112.89 603.176 1115.1 603.176H1143.1C1145.31 603.176 1147.1 604.967 1147.1 607.176V612.089H1111.1V607.176Z" fill="#FD9042"/>
<path d="M1122.21 598.262C1122.21 596.053 1124.01 594.262 1126.21 594.262H1154.21C1156.42 594.262 1158.21 596.053 1158.21 598.262V603.175H1122.21V598.262Z" fill="#FD9042"/>
<path d="M1131.91 589.348C1131.91 587.139 1133.7 585.348 1135.91 585.348H1163.91C1166.12 585.348 1167.91 587.139 1167.91 589.348V594.261H1131.91V589.348Z" fill="#FF9548"/>
<path d="M1141.85 580.438C1141.85 578.228 1143.64 576.438 1145.85 576.438H1173.85C1176.06 576.438 1177.85 578.228 1177.85 580.438V585.351H1141.85V580.438Z" fill="#FD9042"/>
<path d="M1152.26 571.523C1152.26 569.314 1154.05 567.523 1156.26 567.523H1184.26C1186.47 567.523 1188.26 569.314 1188.26 571.523V576.437H1152.26V571.523Z" fill="#FF9548"/>
<path d="M1161.49 562.609C1161.49 560.4 1163.28 558.609 1165.49 558.609H1193.49C1195.7 558.609 1197.49 560.4 1197.49 562.609V567.522H1161.49V562.609Z" fill="#FD9042"/>
<path d="M1171.19 553.695C1171.19 551.486 1172.98 549.695 1175.19 549.695H1203.19C1205.4 549.695 1207.19 551.486 1207.19 553.695V558.608H1171.19V553.695Z" fill="#FD9042"/>
<path d="M1182.07 545C1182.07 542.791 1183.86 541 1186.07 541H1214.07C1216.28 541 1218.07 542.791 1218.07 545V549.913H1182.07V545Z" fill="#FF9548"/>
<path d="M1120.07 616.09C1120.07 613.881 1121.86 612.09 1124.07 612.09H1152.07C1154.28 612.09 1156.07 613.881 1156.07 616.09V621.003H1120.07V616.09Z" fill="#FFF654"/>
<path d="M1130.24 607.176C1130.24 604.967 1132.03 603.176 1134.24 603.176H1162.24C1164.45 603.176 1166.24 604.967 1166.24 607.176V612.089H1130.24V607.176Z" fill="#FCF248"/>
<path d="M1141.36 598.262C1141.36 596.053 1143.15 594.262 1145.36 594.262H1173.36C1175.57 594.262 1177.36 596.053 1177.36 598.262V603.175H1141.36V598.262Z" fill="#FCF248"/>
<path d="M1151.06 589.348C1151.06 587.139 1152.85 585.348 1155.06 585.348H1183.06C1185.27 585.348 1187.06 587.139 1187.06 589.348V594.261H1151.06V589.348Z" fill="#FFF654"/>
<path d="M1161 580.438C1161 578.228 1162.79 576.438 1165 576.438H1193C1195.21 576.438 1197 578.228 1197 580.438V585.351H1161V580.438Z" fill="#FCF248"/>
<path d="M1171.41 571.523C1171.41 569.314 1173.2 567.523 1175.41 567.523H1203.41C1205.62 567.523 1207.41 569.314 1207.41 571.523V576.437H1171.41V571.523Z" fill="#FFF654"/>
<path d="M1180.63 562.609C1180.63 560.4 1182.42 558.609 1184.63 558.609H1212.63C1214.84 558.609 1216.63 560.4 1216.63 562.609V567.522H1180.63V562.609Z" fill="#FCF248"/>
<path d="M1190.33 553.695C1190.33 551.486 1192.12 549.695 1194.33 549.695H1222.33C1224.54 549.695 1226.33 551.486 1226.33 553.695V558.608H1190.33V553.695Z" fill="#FCF248"/>
<path d="M1201.21 545C1201.21 542.791 1203.01 541 1205.21 541H1233.21C1235.42 541 1237.21 542.791 1237.21 545V549.913H1201.21V545Z" fill="#FFF654"/>
<path d="M1139.21 616.09C1139.21 613.881 1141.01 612.09 1143.21 612.09H1171.21C1173.42 612.09 1175.21 613.881 1175.21 616.09V621.003H1139.21V616.09Z" fill="#52CC73"/>
<path d="M1149.39 607.176C1149.39 604.967 1151.18 603.176 1153.39 603.176H1181.39C1183.6 603.176 1185.39 604.967 1185.39 607.176V612.089H1149.39V607.176Z" fill="#3FC964"/>
<path d="M1160.5 598.262C1160.5 596.053 1162.29 594.262 1164.5 594.262H1192.5C1194.71 594.262 1196.5 596.053 1196.5 598.262V603.175H1160.5V598.262Z" fill="#3FC964"/>
<path d="M1170.2 589.348C1170.2 587.139 1171.99 585.348 1174.2 585.348H1202.2C1204.41 585.348 1206.2 587.139 1206.2 589.348V594.261H1170.2V589.348Z" fill="#52CC73"/>
<path d="M1180.14 580.438C1180.14 578.228 1181.93 576.438 1184.14 576.438H1212.14C1214.35 576.438 1216.14 578.228 1216.14 580.438V585.351H1180.14V580.438Z" fill="#3FC964"/>
<path d="M1190.55 571.523C1190.55 569.314 1192.34 567.523 1194.55 567.523H1222.55C1224.76 567.523 1226.55 569.314 1226.55 571.523V576.437H1190.55V571.523Z" fill="#52CC73"/>
<path d="M1199.78 562.609C1199.78 560.4 1201.57 558.609 1203.78 558.609H1231.78C1233.99 558.609 1235.78 560.4 1235.78 562.609V567.522H1199.78V562.609Z" fill="#3FC964"/>
<path d="M1209.48 553.695C1209.48 551.486 1211.27 549.695 1213.48 549.695H1241.48C1243.69 549.695 1245.48 551.486 1245.48 553.695V558.608H1209.48V553.695Z" fill="#3FC964"/>
<path d="M1220.36 545C1220.36 542.791 1222.15 541 1224.36 541H1252.36C1254.57 541 1256.36 542.791 1256.36 545V549.913H1220.36V545Z" fill="#52CC73"/>
<path d="M1158.36 616.09C1158.36 613.881 1160.15 612.09 1162.36 612.09H1190.36C1192.57 612.09 1194.36 613.881 1194.36 616.09V621.003H1158.36V616.09Z" fill="#4DB6E7"/>
<path d="M1168.53 607.176C1168.53 604.967 1170.32 603.176 1172.53 603.176H1200.53C1202.74 603.176 1204.53 604.967 1204.53 607.176V612.089H1168.53V607.176Z" fill="#46ACDB"/>
<path d="M1179.65 598.262C1179.65 596.053 1181.44 594.262 1183.65 594.262H1211.65C1213.86 594.262 1215.65 596.053 1215.65 598.262V603.175H1179.65V598.262Z" fill="#46ACDB"/>
<path d="M1189.35 589.348C1189.35 587.139 1191.14 585.348 1193.35 585.348H1221.35C1223.56 585.348 1225.35 587.139 1225.35 589.348V594.261H1189.35V589.348Z" fill="#4DB6E7"/>
<path d="M1199.29 580.438C1199.29 578.228 1201.08 576.438 1203.29 576.438H1231.29C1233.49 576.438 1235.29 578.228 1235.29 580.438V585.351H1199.29V580.438Z" fill="#46ACDB"/>
<path d="M1209.7 571.523C1209.7 569.314 1211.49 567.523 1213.7 567.523H1241.7C1243.9 567.523 1245.7 569.314 1245.7 571.523V576.437H1209.7V571.523Z" fill="#4DB6E7"/>
<path d="M1218.92 562.609C1218.92 560.4 1220.71 558.609 1222.92 558.609H1250.92C1253.13 558.609 1254.92 560.4 1254.92 562.609V567.522H1218.92V562.609Z" fill="#46ACDB"/>
<path d="M1228.62 553.695C1228.62 551.486 1230.41 549.695 1232.62 549.695H1260.62C1262.83 549.695 1264.62 551.486 1264.62 553.695V558.608H1228.62V553.695Z" fill="#46ACDB"/>
<path d="M1239.5 545C1239.5 542.791 1241.29 541 1243.5 541H1271.5C1273.71 541 1275.5 542.791 1275.5 545V549.913H1239.5V545Z" fill="#4DB6E7"/>
<path d="M1177.5 616.09C1177.5 613.881 1179.29 612.09 1181.5 612.09H1209.5C1211.71 612.09 1213.5 613.881 1213.5 616.09V621.003H1177.5V616.09Z" fill="#956CEE"/>
<path d="M1187.68 607.176C1187.68 604.967 1189.47 603.176 1191.68 603.176H1219.68C1221.88 603.176 1223.68 604.967 1223.68 607.176V612.089H1187.68V607.176Z" fill="#9265F5"/>
<path d="M1198.79 598.262C1198.79 596.053 1200.58 594.262 1202.79 594.262H1230.79C1233 594.262 1234.79 596.053 1234.79 598.262V603.175H1198.79V598.262Z" fill="#9265F5"/>
<path d="M1208.49 589.348C1208.49 587.139 1210.28 585.348 1212.49 585.348H1240.49C1242.7 585.348 1244.49 587.139 1244.49 589.348V594.261H1208.49V589.348Z" fill="#956CEE"/>
<path d="M1218.43 580.438C1218.43 578.228 1220.22 576.438 1222.43 576.438H1250.43C1252.64 576.438 1254.43 578.228 1254.43 580.438V585.351H1218.43V580.438Z" fill="#9265F5"/>
<path d="M1228.84 571.523C1228.84 569.314 1230.63 567.523 1232.84 567.523H1260.84C1263.05 567.523 1264.84 569.314 1264.84 571.523V576.437H1228.84V571.523Z" fill="#956CEE"/>
<path d="M1238.07 562.609C1238.07 560.4 1239.86 558.609 1242.07 558.609H1270.07C1272.28 558.609 1274.07 560.4 1274.07 562.609V567.522H1238.07V562.609Z" fill="#9265F5"/>
<path d="M1247.77 553.695C1247.77 551.486 1249.56 549.695 1251.77 549.695H1279.77C1281.97 549.695 1283.77 551.486 1283.77 553.695V558.608H1247.77V553.695Z" fill="#9265F5"/>
<path d="M1258.65 545C1258.65 542.791 1260.44 541 1262.65 541H1290.65C1292.86 541 1294.65 542.791 1294.65 545V549.913H1258.65V545Z" fill="#956CEE"/>
<path d="M1196.65 616.09C1196.65 613.881 1198.44 612.09 1200.65 612.09H1228.65C1230.86 612.09 1232.65 613.881 1232.65 616.09V621.003H1196.65V616.09Z" fill="white"/>
<path d="M1206.82 607.176C1206.82 604.967 1208.61 603.176 1210.82 603.176H1238.82C1241.03 603.176 1242.82 604.967 1242.82 607.176V612.089H1206.82V607.176Z" fill="#F9F9FF"/>
<path d="M1217.94 598.262C1217.94 596.053 1219.73 594.262 1221.94 594.262H1249.94C1252.15 594.262 1253.94 596.053 1253.94 598.262V603.175H1217.94V598.262Z" fill="#F9F9FF"/>
<path d="M1227.64 589.348C1227.64 587.139 1229.43 585.348 1231.64 585.348H1259.64C1261.85 585.348 1263.64 587.139 1263.64 589.348V594.261H1227.64V589.348Z" fill="white"/>
<path d="M1237.57 580.438C1237.57 578.228 1239.37 576.438 1241.57 576.438H1269.57C1271.78 576.438 1273.57 578.228 1273.57 580.438V585.351H1237.57V580.438Z" fill="#F9F9FF"/>
<path d="M1247.98 571.523C1247.98 569.314 1249.78 567.523 1251.98 567.523H1279.98C1282.19 567.523 1283.98 569.314 1283.98 571.523V576.437H1247.98V571.523Z" fill="white"/>
<path d="M1257.21 562.609C1257.21 560.4 1259 558.609 1261.21 558.609H1289.21C1291.42 558.609 1293.21 560.4 1293.21 562.609V567.522H1257.21V562.609Z" fill="#F9F9FF"/>
<path d="M1266.91 553.695C1266.91 551.486 1268.7 549.695 1270.91 549.695H1298.91C1301.12 549.695 1302.91 551.486 1302.91 553.695V558.608H1266.91V553.695Z" fill="#F9F9FF"/>
<path d="M1277.79 545C1277.79 542.791 1279.58 541 1281.79 541H1309.79C1312 541 1313.79 542.791 1313.79 545V549.913H1277.79V545Z" fill="white"/>
<path d="M1215.79 616.09C1215.79 613.881 1217.58 612.09 1219.79 612.09H1247.79C1250 612.09 1251.79 613.881 1251.79 616.09V621.003H1215.79V616.09Z" fill="#FFACD0"/>
<path d="M1225.96 607.176C1225.96 604.967 1227.76 603.176 1229.96 603.176H1257.96C1260.17 603.176 1261.96 604.967 1261.96 607.176V612.089H1225.96V607.176Z" fill="#FF9EC8"/>
<path d="M1237.08 598.262C1237.08 596.053 1238.87 594.262 1241.08 594.262H1269.08C1271.29 594.262 1273.08 596.053 1273.08 598.262V603.175H1237.08V598.262Z" fill="#FF9EC8"/>
<path d="M1246.78 589.348C1246.78 587.139 1248.57 585.348 1250.78 585.348H1278.78C1280.99 585.348 1282.78 587.139 1282.78 589.348V594.261H1246.78V589.348Z" fill="#FFACD0"/>
<path d="M1256.72 580.438C1256.72 578.228 1258.51 576.438 1260.72 576.438H1288.72C1290.93 576.438 1292.72 578.228 1292.72 580.438V585.351H1256.72V580.438Z" fill="#FF9EC8"/>
<path d="M1267.13 571.523C1267.13 569.314 1268.92 567.523 1271.13 567.523H1299.13C1301.34 567.523 1303.13 569.314 1303.13 571.523V576.437H1267.13V571.523Z" fill="#FFACD0"/>
<path d="M1276.36 562.609C1276.36 560.4 1278.15 558.609 1280.36 558.609H1308.36C1310.56 558.609 1312.36 560.4 1312.36 562.609V567.522H1276.36V562.609Z" fill="#FF9EC8"/>
<path d="M1286.05 553.695C1286.05 551.486 1287.85 549.695 1290.05 549.695H1318.05C1320.26 549.695 1322.05 551.486 1322.05 553.695V558.608H1286.05V553.695Z" fill="#FF9EC8"/>
<path d="M1296.94 545C1296.94 542.791 1298.73 541 1300.94 541H1328.94C1331.15 541 1332.94 542.791 1332.94 545V549.913H1296.94V545Z" fill="#FFACD0"/>
<path d="M1234.94 616.09C1234.94 613.881 1236.73 612.09 1238.94 612.09H1266.94C1269.15 612.09 1270.94 613.881 1270.94 616.09V621.003H1234.94V616.09Z" fill="#73C4F2"/>
<path d="M1245.11 607.176C1245.11 604.967 1246.9 603.176 1249.11 603.176H1277.11C1279.32 603.176 1281.11 604.967 1281.11 607.176V612.089H1245.11V607.176Z" fill="#66BEF2"/>
<path d="M1256.23 598.262C1256.23 596.053 1258.02 594.262 1260.23 594.262H1288.23C1290.44 594.262 1292.23 596.053 1292.23 598.262V603.175H1256.23V598.262Z" fill="#66BEF2"/>
<path d="M1265.93 589.348C1265.93 587.139 1267.72 585.348 1269.93 585.348H1297.93C1300.13 585.348 1301.93 587.139 1301.93 589.348V594.261H1265.93V589.348Z" fill="#73C4F2"/>
<path d="M1275.86 580.438C1275.86 578.228 1277.65 576.438 1279.86 576.438H1307.86C1310.07 576.438 1311.86 578.228 1311.86 580.438V585.351H1275.86V580.438Z" fill="#66BEF2"/>
<path d="M1286.27 571.523C1286.27 569.314 1288.06 567.523 1290.27 567.523H1318.27C1320.48 567.523 1322.27 569.314 1322.27 571.523V576.437H1286.27V571.523Z" fill="#73C4F2"/>
<path d="M1295.5 562.609C1295.5 560.4 1297.29 558.609 1299.5 558.609H1327.5C1329.71 558.609 1331.5 560.4 1331.5 562.609V567.522H1295.5V562.609Z" fill="#66BEF2"/>
<path d="M1305.2 553.695C1305.2 551.486 1306.99 549.695 1309.2 549.695H1337.2C1339.41 549.695 1341.2 551.486 1341.2 553.695V558.608H1305.2V553.695Z" fill="#66BEF2"/>
<path d="M1316.08 545C1316.08 542.791 1317.87 541 1320.08 541H1348.08C1350.29 541 1352.08 542.791 1352.08 545V549.913H1316.08V545Z" fill="#73C4F2"/>
<path d="M1254.08 616.09C1254.08 613.881 1255.87 612.09 1258.08 612.09H1286.08C1288.29 612.09 1290.08 613.881 1290.08 616.09V621.003H1254.08V616.09Z" fill="#715238"/>
<path d="M1264.25 607.176C1264.25 604.967 1266.04 603.176 1268.25 603.176H1296.25C1298.46 603.176 1300.25 604.967 1300.25 607.176V612.089H1264.25V607.176Z" fill="#664931"/>
<path d="M1275.37 598.262C1275.37 596.053 1277.16 594.262 1279.37 594.262H1307.37C1309.58 594.262 1311.37 596.053 1311.37 598.262V603.175H1275.37V598.262Z" fill="#664931"/>
<path d="M1285.07 589.348C1285.07 587.139 1286.86 585.348 1289.07 585.348H1317.07C1319.28 585.348 1321.07 587.139 1321.07 589.348V594.261H1285.07V589.348Z" fill="#715238"/>
<path d="M1295.01 580.438C1295.01 578.228 1296.8 576.438 1299.01 576.438H1327.01C1329.22 576.438 1331.01 578.228 1331.01 580.438V585.351H1295.01V580.438Z" fill="#664931"/>
<path d="M1305.42 571.523C1305.42 569.314 1307.21 567.523 1309.42 567.523H1337.42C1339.63 567.523 1341.42 569.314 1341.42 571.523V576.437H1305.42V571.523Z" fill="#715238"/>
<path d="M1314.64 562.609C1314.64 560.4 1316.44 558.609 1318.64 558.609H1346.64C1348.85 558.609 1350.64 560.4 1350.64 562.609V567.522H1314.64V562.609Z" fill="#664931"/>
<path d="M1324.34 553.695C1324.34 551.486 1326.13 549.695 1328.34 549.695H1356.34C1358.55 549.695 1360.34 551.486 1360.34 553.695V558.608H1324.34V553.695Z" fill="#664931"/>
<path d="M1335.23 545C1335.23 542.791 1337.02 541 1339.23 541H1367.23C1369.44 541 1371.23 542.791 1371.23 545V549.913H1335.23V545Z" fill="#715238"/>
<path d="M1273.23 616.09C1273.23 613.881 1275.02 612.09 1277.23 612.09H1305.23C1307.44 612.09 1309.23 613.881 1309.23 616.09V621.003H1273.23V616.09Z" fill="#333333"/>
<path d="M1283.4 607.176C1283.4 604.967 1285.19 603.176 1287.4 603.176H1315.4C1317.61 603.176 1319.4 604.967 1319.4 607.176V612.089H1283.4V607.176Z" fill="#222222"/>
<path d="M1294.52 598.262C1294.52 596.053 1296.31 594.262 1298.52 594.262H1326.52C1328.72 594.262 1330.52 596.053 1330.52 598.262V603.175H1294.52V598.262Z" fill="#222222"/>
<path d="M1304.21 589.348C1304.21 587.139 1306.01 585.348 1308.21 585.348H1336.21C1338.42 585.348 1340.21 587.139 1340.21 589.348V594.261H1304.21V589.348Z" fill="#333333"/>
<path d="M1314.15 580.438C1314.15 578.228 1315.94 576.438 1318.15 576.438H1346.15C1348.36 576.438 1350.15 578.228 1350.15 580.438V585.351H1314.15V580.438Z" fill="#222222"/>
<path d="M1324.56 571.523C1324.56 569.314 1326.35 567.523 1328.56 567.523H1356.56C1358.77 567.523 1360.56 569.314 1360.56 571.523V576.437H1324.56V571.523Z" fill="#333333"/>
<path d="M1333.79 562.609C1333.79 560.4 1335.58 558.609 1337.79 558.609H1365.79C1368 558.609 1369.79 560.4 1369.79 562.609V567.522H1333.79V562.609Z" fill="#222222"/>
<path d="M1343.49 553.695C1343.49 551.486 1345.28 549.695 1347.49 549.695H1375.49C1377.7 549.695 1379.49 551.486 1379.49 553.695V558.608H1343.49V553.695Z" fill="#222222"/>
<path d="M1354.37 545C1354.37 542.791 1356.16 541 1358.37 541H1386.37C1388.58 541 1390.37 542.791 1390.37 545V549.913H1354.37V545Z" fill="#333333"/>
<path d="M1292.37 616.09C1292.37 613.881 1294.16 612.09 1296.37 612.09H1324.37C1326.58 612.09 1328.37 613.881 1328.37 616.09V621.003H1292.37V616.09Z" fill="#E3E3F3"/>
<path d="M1302.54 607.176C1302.54 604.967 1304.33 603.176 1306.54 603.176H1334.54C1336.75 603.176 1338.54 604.967 1338.54 607.176V612.089H1302.54V607.176Z" fill="#DFDFF0"/>
<path d="M1313.66 598.262C1313.66 596.053 1315.45 594.262 1317.66 594.262H1345.66C1347.87 594.262 1349.66 596.053 1349.66 598.262V603.175H1313.66V598.262Z" fill="#DFDFF0"/>
<path d="M1323.36 589.348C1323.36 587.139 1325.15 585.348 1327.36 585.348H1355.36C1357.57 585.348 1359.36 587.139 1359.36 589.348V594.261H1323.36V589.348Z" fill="#E3E3F3"/>
<path d="M1333.3 580.438C1333.3 578.228 1335.09 576.438 1337.3 576.438H1365.3C1367.51 576.438 1369.3 578.228 1369.3 580.438V585.351H1333.3V580.438Z" fill="#DFDFF0"/>
<path d="M1343.71 571.523C1343.71 569.314 1345.5 567.523 1347.71 567.523H1375.71C1377.92 567.523 1379.71 569.314 1379.71 571.523V576.437H1343.71V571.523Z" fill="#E3E3F3"/>
<path d="M1352.93 562.609C1352.93 560.4 1354.72 558.609 1356.93 558.609H1384.93C1387.14 558.609 1388.93 560.4 1388.93 562.609V567.522H1352.93V562.609Z" fill="#DFDFF0"/>
<path d="M1362.63 553.695C1362.63 551.486 1364.42 549.695 1366.63 549.695H1394.63C1396.84 549.695 1398.63 551.486 1398.63 553.695V558.608H1362.63V553.695Z" fill="#DFDFF0"/>
<path d="M1373.52 545C1373.52 542.791 1375.31 541 1377.52 541H1405.52C1407.72 541 1409.52 542.791 1409.52 545V549.913H1373.52V545Z" fill="#E3E3F3"/>
<path d="M1485.27 573C1485.27 555.327 1499.6 541 1517.27 541H1616.51C1634.18 541 1648.51 555.327 1648.51 573V621H1485.27V573Z" fill="#D5D5E6"/>
<rect x="1654.68" y="458.115" width="12.1445" height="0.5" fill="#D9D9D9" fill-opacity="0.46"/>
<rect x="1654.68" y="459.615" width="12.1445" height="0.5" fill="#D9D9D9" fill-opacity="0.46"/>
<rect x="1654.68" y="461.115" width="12.1445" height="0.5" fill="#D9D9D9" fill-opacity="0.46"/>
<rect x="1654.68" y="462.615" width="12.1445" height="0.5" fill="#D9D9D9" fill-opacity="0.46"/>
<rect x="1654.68" y="464.115" width="7.18359" height="0.5" fill="#D9D9D9" fill-opacity="0.46"/>
<rect x="1654.68" y="469.289" width="7.18359" height="0.5" fill="#D9D9D9" fill-opacity="0.46"/>
<rect x="1654.68" y="470.48" width="3.12891" height="3.12891" fill="#343434"/>
<rect x="1657.59" y="470.684" width="2.7" height="2.69531" transform="rotate(90 1657.59 470.684)" fill="#696969"/>
<rect x="1656.89" y="470.584" width="0.801562" height="0.801562" fill="#858585" stroke="#343434" stroke-width="0.2"/>
<rect x="1654.8" y="470.584" width="0.801562" height="0.801562" fill="#858585" stroke="#343434" stroke-width="0.2"/>
<rect x="1654.8" y="472.681" width="0.801562" height="0.801562" fill="#858585" stroke="#343434" stroke-width="0.2"/>
<path d="M1692.86 591.796C1692.86 588.605 1695.44 586.018 1698.63 586.018H1711.84C1715.03 586.018 1717.62 588.605 1717.62 591.796V621.431H1692.86V591.796Z" fill="#C5C5E0"/>
<g filter="url(#filter5_d_3640_8646)">
<rect x="1672.41" y="576.205" width="24.7617" height="45.2263" rx="5.77849" fill="#6A758E"/>
</g>
<g filter="url(#filter6_i_3640_8646)">
<path d="M1674.04 582.238C1674.04 579.845 1675.98 577.904 1678.37 577.904H1691.22C1693.61 577.904 1695.55 579.845 1695.55 582.238V588.186H1674.04V582.238Z" fill="#E3E3F3"/>
</g>
<g clip-path="url(#clip4_3640_8646)">
<path d="M1674.04 589.639H1695.55V617.035C1695.55 618.692 1694.21 620.035 1692.55 620.035H1677.04C1675.38 620.035 1674.04 618.692 1674.04 617.035V589.639Z" fill="#C98D69"/>
<rect x="1676.75" y="589.639" width="3" height="30.3965" fill="#BE7F58"/>
<rect x="1683.29" y="589.639" width="3" height="30.3965" fill="#BE7F58"/>
<rect x="1689.84" y="589.639" width="3" height="30.3965" fill="#BE7F58"/>
</g>
<path d="M213.293 591.796C213.293 588.605 215.88 586.018 219.071 586.018H232.276C235.468 586.018 238.055 588.605 238.055 591.796V621.431H213.293V591.796Z" fill="#C5C5E0"/>
<g filter="url(#filter7_d_3640_8646)">
<rect x="192.852" y="576.205" width="24.7617" height="45.2263" rx="5.77849" fill="#6A758E"/>
</g>
<g filter="url(#filter8_i_3640_8646)">
<path d="M194.477 582.238C194.477 579.845 196.417 577.904 198.81 577.904H211.654C214.048 577.904 215.988 579.845 215.988 582.238V588.186H194.477V582.238Z" fill="#E3E3F3"/>
</g>
<g clip-path="url(#clip5_3640_8646)">
<path d="M194.477 589.639H215.988V617.035C215.988 618.692 214.645 620.035 212.988 620.035H197.477C195.82 620.035 194.477 618.692 194.477 617.035V589.639Z" fill="#C98D69"/>
<rect x="197.188" y="589.639" width="3" height="30.3965" fill="#BE7F58"/>
<rect x="203.73" y="589.639" width="3" height="30.3965" fill="#BE7F58"/>
<rect x="210.273" y="589.639" width="3" height="30.3965" fill="#BE7F58"/>
</g>
<rect x="788.184" y="470.219" width="92.2969" height="64" rx="14" fill="#C5C5E0"/>
<path d="M192.852 502.219C192.852 484.546 207.178 470.219 224.852 470.219H837.535C845.267 470.219 851.535 476.487 851.535 484.219V541.322H192.852V502.219Z" fill="#DEDEEF"/>
<path d="M351.969 616.412C351.969 614.203 353.76 612.412 355.969 612.412H383.969C386.178 612.412 387.969 614.203 387.969 616.412V621.325H351.969V616.412Z" fill="#C4C4DD"/>
<path d="M362.141 607.498C362.141 605.289 363.931 603.498 366.141 603.498H394.141C396.35 603.498 398.141 605.289 398.141 607.498V612.411H362.141V607.498Z" fill="#BEBED9"/>
<path d="M373.258 598.584C373.258 596.375 375.049 594.584 377.258 594.584H405.258C407.467 594.584 409.258 596.375 409.258 598.584V603.497H373.258V598.584Z" fill="#BEBED9"/>
<path d="M382.957 589.67C382.957 587.461 384.748 585.67 386.957 585.67H414.957C417.166 585.67 418.957 587.461 418.957 589.67V594.583H382.957V589.67Z" fill="#C4C4DD"/>
<path d="M392.895 580.76C392.895 578.551 394.685 576.76 396.895 576.76H424.895C427.104 576.76 428.895 578.551 428.895 580.76V585.673H392.895V580.76Z" fill="#BEBED9"/>
<path d="M403.305 571.846C403.305 569.637 405.096 567.846 407.305 567.846H446.992C449.201 567.846 450.992 569.637 450.992 571.846V576.759H403.305V571.846Z" fill="#C4C4DD"/>
<path d="M412.531 562.932C412.531 560.723 414.322 558.932 416.531 558.932H453.152C455.361 558.932 457.152 560.723 457.152 562.932V567.845H412.531V562.932Z" fill="#BEBED9"/>
<path d="M422.23 554.018C422.23 551.808 424.021 550.018 426.23 550.018H454.23C456.44 550.018 458.23 551.808 458.23 554.018V558.931H422.23V554.018Z" fill="#C4C4DD"/>
<path d="M433.113 545.322C433.113 543.113 434.904 541.322 437.113 541.322H465.113C467.322 541.322 469.113 543.113 469.113 545.322V550.235H433.113V545.322Z" fill="#C4C4DD"/>
<path d="M358.055 616.412C358.055 614.203 359.846 612.412 362.055 612.412H403.113C405.322 612.412 407.113 614.203 407.113 616.412V621.325H358.055V616.412Z" fill="#E3E3F3"/>
<path d="M373.637 607.498C373.637 605.289 375.428 603.498 377.637 603.498H414.957C417.166 603.498 418.957 605.289 418.957 607.498V612.411H373.637V607.498Z" fill="#DFDFF0"/>
<path d="M387.969 598.584C387.969 596.375 389.76 594.584 391.969 594.584H426.094C428.303 594.584 430.094 596.375 430.094 598.584V603.497H387.969V598.584Z" fill="#DFDFF0"/>
<path d="M402.969 589.674C402.969 587.465 404.76 585.674 406.969 585.674H437.488C439.697 585.674 441.488 587.465 441.488 589.674V594.587H402.969V589.674Z" fill="#E3E3F3"/>
<path d="M417.324 580.76C417.324 578.551 419.115 576.76 421.324 576.76H449.324C451.533 576.76 453.324 578.551 453.324 580.76V585.673H417.324V580.76Z" fill="#DFDFF0"/>
<path d="M435.324 571.844C435.324 569.635 437.115 567.844 439.324 567.844H467.324C469.533 567.844 471.324 569.635 471.324 571.844V576.757H435.324V571.844Z" fill="#E3E3F3"/>
<path d="M449.68 562.93C449.68 560.721 451.471 558.93 453.68 558.93H481.68C483.889 558.93 485.68 560.721 485.68 562.93V567.843H449.68V562.93Z" fill="#DFDFF0"/>
<path d="M441.901 552.992C441.153 551.659 442.117 550.014 443.646 550.014H473.888C475.335 550.014 476.669 550.795 477.377 552.057L481.23 558.927H445.23L441.901 552.992Z" fill="#DFDFF0"/>
<path d="M434.495 544.301C433.747 542.968 434.711 541.322 436.239 541.322H466.482C467.928 541.322 469.262 542.103 469.97 543.365L473.824 550.235H437.824L434.495 544.301Z" fill="#DFDFF0"/>
<path d="M880.301 470.795C884.477 470.795 895.617 491.346 901.473 502.74C903.965 507.587 905.188 512.966 905.188 518.415V541.32L880.303 541.32L880.301 470.795Z" fill="#9A85DB" fill-opacity="0.19"/>
<defs>
<filter id="filter0_d_3640_8646" x="287.969" y="406.219" width="102" height="64" filterUnits="userSpaceOnUse" color-interpolation-filters="sRGB">
<feFlood flood-opacity="0" result="BackgroundImageFix"/>
<feColorMatrix in="SourceAlpha" type="matrix" values="0 0 0 0 0 0 0 0 0 0 0 0 0 0 0 0 0 0 127 0" result="hardAlpha"/>
<feOffset dx="38"/>
<feComposite in2="hardAlpha" operator="out"/>
<feColorMatrix type="matrix" values="0 0 0 0 0.772549 0 0 0 0 0.772549 0 0 0 0 0.878431 0 0 0 1 0"/>
<feBlend mode="normal" in2="BackgroundImageFix" result="effect1_dropShadow_3640_8646"/>
<feBlend mode="normal" in="SourceGraphic" in2="effect1_dropShadow_3640_8646" result="shape"/>
</filter>
<filter id="filter1_d_3640_8646" x="120.406" y="541.322" width="1833.78" height="80" filterUnits="userSpaceOnUse" color-interpolation-filters="sRGB">
<feFlood flood-opacity="0" result="BackgroundImageFix"/>
<feColorMatrix in="SourceAlpha" type="matrix" values="0 0 0 0 0 0 0 0 0 0 0 0 0 0 0 0 0 0 127 0" result="hardAlpha"/>
<feOffset dx="186"/>
<feComposite in2="hardAlpha" operator="out"/>
<feColorMatrix type="matrix" values="0 0 0 0 0.7738 0 0 0 0 0.7738 0 0 0 0 0.877943 0 0 0 1 0"/>
<feBlend mode="normal" in2="BackgroundImageFix" result="effect1_dropShadow_3640_8646"/>
<feBlend mode="normal" in="SourceGraphic" in2="effect1_dropShadow_3640_8646" result="shape"/>
</filter>
<filter id="filter2_d_3640_8646" x="640.02" y="200.578" width="1065.93" height="343.078" filterUnits="userSpaceOnUse" color-interpolation-filters="sRGB">
<feFlood flood-opacity="0" result="BackgroundImageFix"/>
<feColorMatrix in="SourceAlpha" type="matrix" values="0 0 0 0 0 0 0 0 0 0 0 0 0 0 0 0 0 0 127 0" result="hardAlpha"/>
<feOffset dx="37"/>
<feComposite in2="hardAlpha" operator="out"/>
<feColorMatrix type="matrix" values="0 0 0 0 0.772549 0 0 0 0 0.772549 0 0 0 0 0.878431 0 0 0 1 0"/>
<feBlend mode="normal" in2="BackgroundImageFix" result="effect1_dropShadow_3640_8646"/>
<feBlend mode="normal" in="SourceGraphic" in2="effect1_dropShadow_3640_8646" result="shape"/>
</filter>
<filter id="filter3_d_3640_8646" x="1080.43" y="470.219" width="832.641" height="71.1035" filterUnits="userSpaceOnUse" color-interpolation-filters="sRGB">
<feFlood flood-opacity="0" result="BackgroundImageFix"/>
<feColorMatrix in="SourceAlpha" type="matrix" values="0 0 0 0 0 0 0 0 0 0 0 0 0 0 0 0 0 0 127 0" result="hardAlpha"/>
<feOffset dx="97"/>
<feComposite in2="hardAlpha" operator="out"/>
<feColorMatrix type="matrix" values="0 0 0 0 0.772549 0 0 0 0 0.772549 0 0 0 0 0.878431 0 0 0 1 0"/>
<feBlend mode="normal" in2="BackgroundImageFix" result="effect1_dropShadow_3640_8646"/>
<feBlend mode="normal" in="SourceGraphic" in2="effect1_dropShadow_3640_8646" result="shape"/>
</filter>
<filter id="filter4_d_3640_8646" x="1650.3" y="407.816" width="70.3984" height="133.506" filterUnits="userSpaceOnUse" color-interpolation-filters="sRGB">
<feFlood flood-opacity="0" result="BackgroundImageFix"/>
<feColorMatrix in="SourceAlpha" type="matrix" values="0 0 0 0 0 0 0 0 0 0 0 0 0 0 0 0 0 0 127 0" result="hardAlpha"/>
<feOffset dx="7"/>
<feComposite in2="hardAlpha" operator="out"/>
<feColorMatrix type="matrix" values="0 0 0 0 0.113579 0 0 0 0 0.113579 0 0 0 0 0.113579 0 0 0 1 0"/>
<feBlend mode="normal" in2="BackgroundImageFix" result="effect1_dropShadow_3640_8646"/>
<feBlend mode="normal" in="SourceGraphic" in2="effect1_dropShadow_3640_8646" result="shape"/>
</filter>
<filter id="filter5_d_3640_8646" x="1672.41" y="576.205" width="33.4294" height="45.2266" filterUnits="userSpaceOnUse" color-interpolation-filters="sRGB">
<feFlood flood-opacity="0" result="BackgroundImageFix"/>
<feColorMatrix in="SourceAlpha" type="matrix" values="0 0 0 0 0 0 0 0 0 0 0 0 0 0 0 0 0 0 127 0" result="hardAlpha"/>
<feOffset dx="8.66773"/>
<feComposite in2="hardAlpha" operator="out"/>
<feColorMatrix type="matrix" values="0 0 0 0 0.334488 0 0 0 0 0.381049 0 0 0 0 0.484518 0 0 0 1 0"/>
<feBlend mode="normal" in2="BackgroundImageFix" result="effect1_dropShadow_3640_8646"/>
<feBlend mode="normal" in="SourceGraphic" in2="effect1_dropShadow_3640_8646" result="shape"/>
</filter>
<filter id="filter6_i_3640_8646" x="1674.04" y="577.904" width="21.5117" height="10.2812" filterUnits="userSpaceOnUse" color-interpolation-filters="sRGB">
<feFlood flood-opacity="0" result="BackgroundImageFix"/>
<feBlend mode="normal" in="SourceGraphic" in2="BackgroundImageFix" result="shape"/>
<feColorMatrix in="SourceAlpha" type="matrix" values="0 0 0 0 0 0 0 0 0 0 0 0 0 0 0 0 0 0 127 0" result="hardAlpha"/>
<feOffset dx="5.77849"/>
<feComposite in2="hardAlpha" operator="arithmetic" k2="-1" k3="1"/>
<feColorMatrix type="matrix" values="0 0 0 0 0.333333 0 0 0 0 0.380392 0 0 0 0 0.486275 0 0 0 1 0"/>
<feBlend mode="normal" in2="shape" result="effect1_innerShadow_3640_8646"/>
</filter>
<filter id="filter7_d_3640_8646" x="192.852" y="576.205" width="33.4294" height="45.2266" filterUnits="userSpaceOnUse" color-interpolation-filters="sRGB">
<feFlood flood-opacity="0" result="BackgroundImageFix"/>
<feColorMatrix in="SourceAlpha" type="matrix" values="0 0 0 0 0 0 0 0 0 0 0 0 0 0 0 0 0 0 127 0" result="hardAlpha"/>
<feOffset dx="8.66773"/>
<feComposite in2="hardAlpha" operator="out"/>
<feColorMatrix type="matrix" values="0 0 0 0 0.334488 0 0 0 0 0.381049 0 0 0 0 0.484518 0 0 0 1 0"/>
<feBlend mode="normal" in2="BackgroundImageFix" result="effect1_dropShadow_3640_8646"/>
<feBlend mode="normal" in="SourceGraphic" in2="effect1_dropShadow_3640_8646" result="shape"/>
</filter>
<filter id="filter8_i_3640_8646" x="194.477" y="577.904" width="21.5117" height="10.2812" filterUnits="userSpaceOnUse" color-interpolation-filters="sRGB">
<feFlood flood-opacity="0" result="BackgroundImageFix"/>
<feBlend mode="normal" in="SourceGraphic" in2="BackgroundImageFix" result="shape"/>
<feColorMatrix in="SourceAlpha" type="matrix" values="0 0 0 0 0 0 0 0 0 0 0 0 0 0 0 0 0 0 127 0" result="hardAlpha"/>
<feOffset dx="5.77849"/>
<feComposite in2="hardAlpha" operator="arithmetic" k2="-1" k3="1"/>
<feColorMatrix type="matrix" values="0 0 0 0 0.333333 0 0 0 0 0.380392 0 0 0 0 0.486275 0 0 0 1 0"/>
<feBlend mode="normal" in2="shape" result="effect1_innerShadow_3640_8646"/>
</filter>
<clipPath id="clip4_3640_8646">
<path d="M1674.04 589.639H1695.55V617.035C1695.55 618.692 1694.21 620.035 1692.55 620.035H1677.04C1675.38 620.035 1674.04 618.692 1674.04 617.035V589.639Z" fill="white"/>
</clipPath>
<clipPath id="clip5_3640_8646">
<path d="M194.477 589.639H215.988V617.035C215.988 618.692 214.645 620.035 212.988 620.035H197.477C195.82 620.035 194.477 618.692 194.477 617.035V589.639Z" fill="white"/>
</clipPath>
<pattern id="pattern0_3640_8646" patternUnits="userSpaceOnUse" patternTransform="matrix(8036.32 0 0 1232.55 506.414 96.6096)" preserveAspectRatio="none" viewBox="0 0 10715.1 1643.4" width="1" height="1">
<g id="pattern0_3640_8646_inner">
<rect width="3247" height="498" fill="#FFE248"/>
<mask id="mask0_3640_8646" style="mask-type:alpha" maskUnits="userSpaceOnUse" x="173" y="0" width="3075" height="498">
<rect x="173" width="3074.34" height="498" fill="#D9D9D9"/>
</mask>
<g mask="url(#mask0_3640_8646)">
<g clip-path="url(#clip0_3640_8646)">
<rect width="3074.34" height="498" transform="translate(173)" fill="white"/>
<rect x="173" width="3074.34" height="83" fill="#F0483C"/>
<rect x="173" y="83" width="3074.34" height="83" fill="#FD9042"/>
<rect x="173" y="166" width="3074.34" height="83" fill="#FFF654"/>
<rect x="173" y="249" width="3074.34" height="83" fill="#52CC73"/>
<rect x="173" y="332" width="3074.34" height="83" fill="#46ACDB"/>
<rect x="173" y="415" width="3074.34" height="83" fill="#956CEE"/>
</g>
</g>
<g clip-path="url(#clip1_3640_8646)">
<rect x="513.66" y="-89" width="478.004" height="478.004" transform="rotate(45 513.66 -89)" fill="#222222"/>
<rect x="429.66" y="-89" width="478.004" height="478.004" transform="rotate(45 429.66 -89)" fill="#715238"/>
<rect x="345.664" y="-89" width="478.004" height="478.004" transform="rotate(45 345.664 -89)" fill="#73C4F2"/>
<rect x="261.664" y="-89" width="478.004" height="478.004" transform="rotate(45 261.664 -89)" fill="#FFACD0"/>
<rect x="177.664" y="-89" width="478.004" height="478.004" transform="rotate(45 177.664 -89)" fill="white"/>
<rect x="93.6641" y="-89" width="478.004" height="478.004" transform="rotate(45 93.6641 -89)" fill="#FFE248"/>
<circle cx="268.662" cy="249" r="55.7871" stroke="#9A67BF" stroke-width="16"/>
</g>
</g>
</pattern><pattern id="pattern1_3640_8646" patternUnits="userSpaceOnUse" patternTransform="matrix(8036.32 0 0 1232.55 383.949 96.6096)" preserveAspectRatio="none" viewBox="0 0 10715.1 1643.4" width="1" height="1">
<g id="pattern1_3640_8646_inner">
<rect width="3247" height="498" fill="#FFE248"/>
<mask id="mask1_3640_8646" style="mask-type:alpha" maskUnits="userSpaceOnUse" x="173" y="0" width="3075" height="498">
<rect x="173" width="3074.34" height="498" fill="#D9D9D9"/>
</mask>
<g mask="url(#mask1_3640_8646)">
<g clip-path="url(#clip2_3640_8646)">
<rect width="3074.34" height="498" transform="translate(173)" fill="white"/>
<rect x="173" width="3074.34" height="83" fill="#F0483C"/>
<rect x="173" y="83" width="3074.34" height="83" fill="#FD9042"/>
<rect x="173" y="166" width="3074.34" height="83" fill="#FFF654"/>
<rect x="173" y="249" width="3074.34" height="83" fill="#52CC73"/>
<rect x="173" y="332" width="3074.34" height="83" fill="#46ACDB"/>
<rect x="173" y="415" width="3074.34" height="83" fill="#956CEE"/>
</g>
</g>
<g clip-path="url(#clip3_3640_8646)">
<rect x="513.66" y="-89" width="478.004" height="478.004" transform="rotate(45 513.66 -89)" fill="#222222"/>
<rect x="429.66" y="-89" width="478.004" height="478.004" transform="rotate(45 429.66 -89)" fill="#715238"/>
<rect x="345.664" y="-89" width="478.004" height="478.004" transform="rotate(45 345.664 -89)" fill="#73C4F2"/>
<rect x="261.664" y="-89" width="478.004" height="478.004" transform="rotate(45 261.664 -89)" fill="#FFACD0"/>
<rect x="177.664" y="-89" width="478.004" height="478.004" transform="rotate(45 177.664 -89)" fill="white"/>
<rect x="93.6641" y="-89" width="478.004" height="478.004" transform="rotate(45 93.6641 -89)" fill="#FFE248"/>
<circle cx="268.662" cy="249" r="55.7871" stroke="#9A67BF" stroke-width="16"/>
</g>
</g>
</pattern><clipPath id="clip0_3640_8646">
<rect width="3074.34" height="498" fill="white" transform="translate(173)"/>
</clipPath>
<clipPath id="clip1_3640_8646">
<rect width="821" height="498" fill="white" transform="translate(30.6602)"/>
</clipPath>
<clipPath id="clip2_3640_8646">
<rect width="3074.34" height="498" fill="white" transform="translate(173)"/>
</clipPath>
<clipPath id="clip3_3640_8646">
<rect width="821" height="498" fill="white" transform="translate(30.6602)"/>
</clipPath>
</defs>
</svg>
