<svg width="2659" height="1369" viewBox="0 0 2659 1369" fill="none" xmlns="http://www.w3.org/2000/svg">
<rect x="185" y="175" width="2357" height="790" fill="#404F3E"/>
<path d="M2586.5 925.5V1304.5H135.5V925.5H2586.5Z" fill="#424242" stroke="#424242"/>
<path d="M134.5 925.207V1303.79L95.5 1264.79V886.207L134.5 925.207Z" fill="#626262" stroke="#626262"/>
<path d="M2546.79 885.5L2585.79 924.5H135.207L96.207 885.5H2546.79Z" fill="#838383" stroke="#424242"/>
<path d="M266.793 175.5L305.793 214.5H135.207L96.207 175.5H266.793Z" fill="#838383" stroke="#424242"/>
<path d="M2414.5 215.207V923.793L2375.5 884.793V176.207L2414.5 215.207Z" fill="#626262" stroke="#626262"/>
<path d="M2546.79 175.5L2585.79 214.5H2415.21L2376.21 175.5H2546.79Z" fill="#838383" stroke="#424242"/>
<rect x="2295" y="1105" width="120" height="120" fill="#FFA705"/>
<path d="M2285 1095L2295 1105V1225L2285 1215V1095Z" fill="#FDE198"/>
<path d="M2285 1095H2405L2415 1105H2295L2285 1095Z" fill="#FFD416"/>
<path d="M2355 965H2405L2415 975H2365L2355 965Z" fill="#FFD416"/>
<path d="M2365 975H2415V1025H2365V975Z" fill="#FFA705"/>
<path d="M2355 965L2365 975V1025L2355 1015V965Z" fill="#FDE198"/>
<path d="M2255 965H2305L2315 975H2265L2255 965Z" fill="#FFD416"/>
<path d="M2265 975H2315V1025H2265V975Z" fill="#FFA705"/>
<path d="M2255 965L2265 975V1025L2255 1015V965Z" fill="#FDE198"/>
<path d="M2155 965H2205L2215 975H2165L2155 965Z" fill="#FFD416"/>
<path d="M2165 975H2215V1025H2165V975Z" fill="#FFA705"/>
<path d="M2155 965L2165 975V1025L2155 1015V965Z" fill="#FDE198"/>
<path d="M2055 965H2105L2115 975H2065L2055 965Z" fill="#FFD416"/>
<path d="M2065 975H2115V1025H2065V975Z" fill="#FFA705"/>
<path d="M2055 965L2065 975V1025L2055 1015V965Z" fill="#FDE198"/>
<path d="M397 965H477L487 975H407L397 965Z" fill="#FFD416"/>
<rect x="407" y="975" width="80" height="80" fill="#FFA705"/>
<path d="M397 965L407 975V1055L397 1045V965Z" fill="#FDE198"/>
<path d="M497 1065H577L587 1075H507L497 1065Z" fill="#FFD416"/>
<rect x="507" y="1075" width="80" height="80" fill="#FFA705"/>
<path d="M497 1065L507 1075V1155L497 1145V1065Z" fill="#FDE198"/>
<path d="M397 1165H477L487 1175H407L397 1165Z" fill="#FFD416"/>
<rect x="407" y="1175" width="80" height="80" fill="#FFA705"/>
<path d="M397 1165L407 1175V1255L397 1245V1165Z" fill="#FDE198"/>
<path d="M297 1065H377L387 1075H307L297 1065Z" fill="#FFD416"/>
<rect x="307" y="1075" width="80" height="80" fill="#FFA705"/>
<path d="M297 1065L307 1075V1155L297 1145V1065Z" fill="#FDE198"/>
<path d="M2282 912V852H2342V912H2282Z" fill="#69AA1A"/>
<path d="M2282 852L2266 836H2326L2342 852H2282Z" fill="#78B82A"/>
<path d="M2266 896V836L2282 852V912L2266 896Z" fill="#95CD50"/>
<path d="M2162 912V852H2222V912H2162Z" fill="#945516"/>
<path d="M2162 852L2146 836H2206L2222 852H2162Z" fill="#B87028"/>
<path d="M2146 896V836L2162 852V912L2146 896Z" fill="#DB9B5B"/>
<path d="M2042 912V852H2102V912H2042Z" fill="#C91A11"/>
<path d="M2042 852L2026 836H2086L2102 852H2042Z" fill="#E22016"/>
<path d="M2026 896V836L2042 852V912L2026 896Z" fill="#EE4C44"/>
<path d="M1862 912V852H1922V912H1862Z" fill="#1E468A"/>
<path d="M1862 852L1846 836H1906L1922 852H1862Z" fill="#2C58A4"/>
<path d="M1846 896V836L1862 852V912L1846 896Z" fill="#5076B8"/>
<path d="M1802 912V852H1862V912H1802Z" fill="#1E468A"/>
<path d="M1802 852L1786 836H1846L1862 852H1802Z" fill="#2C58A4"/>
<path d="M1786 896V836L1802 852V912L1786 896Z" fill="#5076B8"/>
<path d="M1742 912V852H1802V912H1742Z" fill="#1E468A"/>
<path d="M1742 852L1726 836H1786L1802 852H1742Z" fill="#2C58A4"/>
<path d="M1726 896V836L1742 852V912L1726 896Z" fill="#5076B8"/>
<path d="M1622 912V852H1682V912H1622Z" fill="#DE7C12"/>
<path d="M1622 852L1606 836H1666L1682 852H1622Z" fill="#F28917"/>
<path d="M1606 896V836L1622 852V912L1606 896Z" fill="#FEA13B"/>
<path d="M2042 852V792H2102V852H2042Z" fill="#C91A11"/>
<path d="M2042 792L2026 776H2086L2102 792H2042Z" fill="#E22016"/>
<path d="M2026 836V776L2042 792V852L2026 836Z" fill="#EE4C44"/>
<path d="M1982 852V792H2042V852H1982Z" fill="#C91A11"/>
<path d="M1982 792L1966 776H2026L2042 792H1982Z" fill="#E22016"/>
<path d="M1966 836V776L1982 792V852L1966 836Z" fill="#EE4C44"/>
<path d="M1922 852V792H1982V852H1922Z" fill="#C91A11"/>
<path d="M1922 792L1906 776H1966L1982 792H1922Z" fill="#E22016"/>
<path d="M1906 836V776L1922 792V852L1906 836Z" fill="#EE4C44"/>
<path d="M1862 852V792H1922V852H1862Z" fill="#1E468A"/>
<path d="M1862 792L1846 776H1906L1922 792H1862Z" fill="#2C58A4"/>
<path d="M1846 836V776L1862 792V852L1846 836Z" fill="#5076B8"/>
<path d="M1802 852V792H1862V852H1802Z" fill="#CE7A99"/>
<path d="M1802 792L1786 776H1846L1862 792H1802Z" fill="#EC8EB1"/>
<path d="M1786 836V776L1802 792V852L1786 836Z" fill="#F4AEC8"/>
<path d="M1862 792V732H1922V792H1862Z" fill="#29C999"/>
<path d="M1862 732L1846 716H1906L1922 732H1862Z" fill="#3EE5B3"/>
<path d="M1846 776V716L1862 732V792L1846 776Z" fill="#74FEE2"/>
<path d="M1862 732V672H1922V732H1862Z" fill="#29C999"/>
<path d="M1862 672L1846 656H1906L1922 672H1862Z" fill="#3EE5B3"/>
<path d="M1846 716V656L1862 672V732L1846 716Z" fill="#74FEE2"/>
<path d="M1862 672V612H1922V672H1862Z" fill="#29C999"/>
<path d="M1862 612L1846 596H1906L1922 612H1862Z" fill="#3EE5B3"/>
<path d="M1846 656V596L1862 612V672L1846 656Z" fill="#74FEE2"/>
<path d="M1862 612V552H1922V612H1862Z" fill="#29C999"/>
<path d="M1862 552L1846 536H1906L1922 552H1862Z" fill="#3EE5B3"/>
<path d="M1846 596V536L1862 552V612L1846 596Z" fill="#74FEE2"/>
<path d="M1802 552V492H1862V552H1802Z" fill="#29C999"/>
<path d="M1802 492L1786 476H1846L1862 492H1802Z" fill="#3EE5B3"/>
<path d="M1786 536V476L1802 492V552L1786 536Z" fill="#74FEE2"/>
<path d="M1802 792V732H1862V792H1802Z" fill="#CE7A99"/>
<path d="M1802 732L1786 716H1846L1862 732H1802Z" fill="#EC8EB1"/>
<path d="M1786 776V716L1802 732V792L1786 776Z" fill="#F4AEC8"/>
<path d="M1802 732V672H1862V732H1802Z" fill="#CE7A99"/>
<path d="M1802 672L1786 656H1846L1862 672H1802Z" fill="#EC8EB1"/>
<path d="M1786 716V656L1802 672V732L1786 716Z" fill="#F4AEC8"/>
<path d="M1742 852V792H1802V852H1742Z" fill="#CE7A99"/>
<path d="M1742 792L1726 776H1786L1802 792H1742Z" fill="#EC8EB1"/>
<path d="M1726 836V776L1742 792V852L1726 836Z" fill="#F4AEC8"/>
<path d="M1742 792V732H1802V792H1742Z" fill="#29C999"/>
<path d="M1742 732L1726 716H1786L1802 732H1742Z" fill="#3EE5B3"/>
<path d="M1726 776V716L1742 732V792L1726 776Z" fill="#74FEE2"/>
<path d="M1742 732V672H1802V732H1742Z" fill="#29C999"/>
<path d="M1742 672L1726 656H1786L1802 672H1742Z" fill="#3EE5B3"/>
<path d="M1726 716V656L1742 672V732L1726 716Z" fill="#74FEE2"/>
<path d="M1742 672V612H1802V672H1742Z" fill="#29C999"/>
<path d="M1742 612L1726 596H1786L1802 612H1742Z" fill="#3EE5B3"/>
<path d="M1726 656V596L1742 612V672L1726 656Z" fill="#74FEE2"/>
<path d="M1742 612V552H1802V612H1742Z" fill="#29C999"/>
<path d="M1742 552L1726 536H1786L1802 552H1742Z" fill="#3EE5B3"/>
<path d="M1726 596V536L1742 552V612L1726 596Z" fill="#74FEE2"/>
<path d="M1742 552V492H1802V552H1742Z" fill="#29C999"/>
<path d="M1742 492L1726 476H1786L1802 492H1742Z" fill="#3EE5B3"/>
<path d="M1726 536V476L1742 492V552L1726 536Z" fill="#74FEE2"/>
<path d="M1682 552V492H1742V552H1682Z" fill="#29C999"/>
<path d="M1682 492L1666 476H1726L1742 492H1682Z" fill="#3EE5B3"/>
<path d="M1666 536V476L1682 492V552L1666 536Z" fill="#74FEE2"/>
<path d="M1682 852V792H1742V852H1682Z" fill="#DE7C12"/>
<path d="M1682 792L1666 776H1726L1742 792H1682Z" fill="#F28917"/>
<path d="M1666 836V776L1682 792V852L1666 836Z" fill="#FEA13B"/>
<path d="M1682 792V732H1742V792H1682Z" fill="#E2E9F4"/>
<path d="M1682 732L1666 716H1726L1742 732H1682Z" fill="#F4F9FF"/>
<path d="M1666 776V716L1682 732V792L1666 776Z" fill="white"/>
<path d="M1622 852V792H1682V852H1622Z" fill="#DE7C12"/>
<path d="M1622 792L1606 776H1666L1682 792H1622Z" fill="#F28917"/>
<path d="M1606 836V776L1622 792V852L1606 836Z" fill="#FEA13B"/>
<path d="M1502 912V852H1562V912H1502Z" fill="#945516"/>
<path d="M1502 852L1486 836H1546L1562 852H1502Z" fill="#B87028"/>
<path d="M1486 896V836L1502 852V912L1486 896Z" fill="#DB9B5B"/>
<path d="M1562 852V792H1622V852H1562Z" fill="#DE7C12"/>
<path d="M1562 792L1546 776H1606L1622 792H1562Z" fill="#F28917"/>
<path d="M1546 836V776L1562 792V852L1546 836Z" fill="#FEA13B"/>
<path d="M1622 792V732H1682V792H1622Z" fill="#29C999"/>
<path d="M1622 732L1606 716H1666L1682 732H1622Z" fill="#3EE5B3"/>
<path d="M1606 776V716L1622 732V792L1606 776Z" fill="#74FEE2"/>
<path d="M1622 732V672H1682V732H1622Z" fill="#29C999"/>
<path d="M1622 672L1606 656H1666L1682 672H1622Z" fill="#3EE5B3"/>
<path d="M1606 716V656L1622 672V732L1606 716Z" fill="#74FEE2"/>
<path d="M1622 672V612H1682V672H1622Z" fill="#29C999"/>
<path d="M1622 612L1606 596H1666L1682 612H1622Z" fill="#3EE5B3"/>
<path d="M1606 656V596L1622 612V672L1606 656Z" fill="#74FEE2"/>
<path d="M1622 612V552H1682V612H1622Z" fill="#29C999"/>
<path d="M1622 552L1606 536H1666L1682 552H1622Z" fill="#3EE5B3"/>
<path d="M1606 596V536L1622 552V612L1606 596Z" fill="#74FEE2"/>
<path d="M1622 552V492H1682V552H1622Z" fill="#29C999"/>
<path d="M1622 492L1606 476H1666L1682 492H1622Z" fill="#3EE5B3"/>
<path d="M1606 536V476L1622 492V552L1606 536Z" fill="#74FEE2"/>
<path d="M1562 792V732H1622V792H1562Z" fill="#945516"/>
<path d="M1562 732L1546 716H1606L1622 732H1562Z" fill="#B87028"/>
<path d="M1546 776V716L1562 732V792L1546 776Z" fill="#DB9B5B"/>
<path d="M1502 852V792H1562V852H1502Z" fill="#945516"/>
<path d="M1502 792L1486 776H1546L1562 792H1502Z" fill="#B87028"/>
<path d="M1486 836V776L1502 792V852L1486 836Z" fill="#DB9B5B"/>
<path d="M1502 792V732H1562V792H1502Z" fill="#945516"/>
<path d="M1502 732L1486 716H1546L1562 732H1502Z" fill="#B87028"/>
<path d="M1486 776V716L1502 732V792L1486 776Z" fill="#DB9B5B"/>
<path d="M1442 912V852H1502V912H1442Z" fill="#561766"/>
<path d="M1442 852L1426 836H1486L1502 852H1442Z" fill="#6D2380"/>
<path d="M1426 896V836L1442 852V912L1426 896Z" fill="#9644AB"/>
<path d="M1442 852V792H1502V852H1442Z" fill="#561766"/>
<path d="M1442 792L1426 776H1486L1502 792H1442Z" fill="#6D2380"/>
<path d="M1426 836V776L1442 792V852L1426 836Z" fill="#9644AB"/>
<path d="M1382 912V852H1442V912H1382Z" fill="#561766"/>
<path d="M1382 852L1366 836H1426L1442 852H1382Z" fill="#6D2380"/>
<path d="M1366 896V836L1382 852V912L1366 896Z" fill="#9644AB"/>
<path d="M1382 852V792H1442V852H1382Z" fill="#561766"/>
<path d="M1382 792L1366 776H1426L1442 792H1382Z" fill="#6D2380"/>
<path d="M1366 836V776L1382 792V852L1366 836Z" fill="#9644AB"/>
<path d="M1442 792V732H1502V792H1442Z" fill="#29C999"/>
<path d="M1442 732L1426 716H1486L1502 732H1442Z" fill="#3EE5B3"/>
<path d="M1426 776V716L1442 732V792L1426 776Z" fill="#74FEE2"/>
<path d="M1382 792V732H1442V792H1382Z" fill="#29C999"/>
<path d="M1382 732L1366 716H1426L1442 732H1382Z" fill="#3EE5B3"/>
<path d="M1366 776V716L1382 732V792L1366 776Z" fill="#74FEE2"/>
<path d="M1322 912V852H1382V912H1322Z" fill="#29C999"/>
<path d="M1322 852L1306 836H1366L1382 852H1322Z" fill="#3EE5B3"/>
<path d="M1306 896V836L1322 852V912L1306 896Z" fill="#74FEE2"/>
<path d="M1322 852V792H1382V852H1322Z" fill="#29C999"/>
<path d="M1322 792L1306 776H1366L1382 792H1322Z" fill="#3EE5B3"/>
<path d="M1306 836V776L1322 792V852L1306 836Z" fill="#74FEE2"/>
<path d="M1322 792V732H1382V792H1322Z" fill="#29C999"/>
<path d="M1322 732L1306 716H1366L1382 732H1322Z" fill="#3EE5B3"/>
<path d="M1306 776V716L1322 732V792L1306 776Z" fill="#74FEE2"/>
<path d="M1322 732V672H1382V732H1322Z" fill="#29C999"/>
<path d="M1322 672L1306 656H1366L1382 672H1322Z" fill="#3EE5B3"/>
<path d="M1306 716V656L1322 672V732L1306 716Z" fill="#74FEE2"/>
<path d="M1322 672V612H1382V672H1322Z" fill="#29C999"/>
<path d="M1322 612L1306 596H1366L1382 612H1322Z" fill="#3EE5B3"/>
<path d="M1306 656V596L1322 612V672L1306 656Z" fill="#74FEE2"/>
<path d="M1322 612V552H1382V612H1322Z" fill="#29C999"/>
<path d="M1322 552L1306 536H1366L1382 552H1322Z" fill="#3EE5B3"/>
<path d="M1306 596V536L1322 552V612L1306 596Z" fill="#74FEE2"/>
<path d="M1502 732V672H1562V732H1502Z" fill="#29C999"/>
<path d="M1502 672L1486 656H1546L1562 672H1502Z" fill="#3EE5B3"/>
<path d="M1486 716V656L1502 672V732L1486 716Z" fill="#74FEE2"/>
<path d="M1502 672V612H1562V672H1502Z" fill="#29C999"/>
<path d="M1502 612L1486 596H1546L1562 612H1502Z" fill="#3EE5B3"/>
<path d="M1486 656V596L1502 612V672L1486 656Z" fill="#74FEE2"/>
<path d="M1502 612V552H1562V612H1502Z" fill="#29C999"/>
<path d="M1502 552L1486 536H1546L1562 552H1502Z" fill="#3EE5B3"/>
<path d="M1486 596V536L1502 552V612L1486 596Z" fill="#74FEE2"/>
<path d="M1442 552V492H1502V552H1442Z" fill="#29C999"/>
<path d="M1442 492L1426 476H1486L1502 492H1442Z" fill="#3EE5B3"/>
<path d="M1426 536V476L1442 492V552L1426 536Z" fill="#74FEE2"/>
<path d="M1382 552V492H1442V552H1382Z" fill="#29C999"/>
<path d="M1382 492L1366 476H1426L1442 492H1382Z" fill="#3EE5B3"/>
<path d="M1366 536V476L1382 492V552L1366 536Z" fill="#74FEE2"/>
<path d="M1322 552V492H1382V552H1322Z" fill="#29C999"/>
<path d="M1322 492L1306 476H1366L1382 492H1322Z" fill="#3EE5B3"/>
<path d="M1306 536V476L1322 492V552L1306 536Z" fill="#74FEE2"/>
<path d="M1262 852V792H1322V852H1262Z" fill="#E2E9F4"/>
<path d="M1262 792L1246 776H1306L1322 792H1262Z" fill="#F4F9FF"/>
<path d="M1246 836V776L1262 792V852L1246 836Z" fill="white"/>
<path d="M1262 792V732H1322V792H1262Z" fill="#CE7A99"/>
<path d="M1262 732L1246 716H1306L1322 732H1262Z" fill="#EC8EB1"/>
<path d="M1246 776V716L1262 732V792L1246 776Z" fill="#F4AEC8"/>
<path d="M1202 912V852H1262V912H1202Z" fill="#E2E9F4"/>
<path d="M1202 852L1186 836H1246L1262 852H1202Z" fill="#F4F9FF"/>
<path d="M1186 896V836L1202 852V912L1186 896Z" fill="white"/>
<path d="M1082 912V852H1142V912H1082Z" fill="#212121"/>
<path d="M1082 852L1066 836H1126L1142 852H1082Z" fill="#363636"/>
<path d="M1066 896V836L1082 852V912L1066 896Z" fill="#535353"/>
<path d="M1022 912V852H1082V912H1022Z" fill="#212121"/>
<path d="M1022 852L1006 836H1066L1082 852H1022Z" fill="#363636"/>
<path d="M1006 896V836L1022 852V912L1006 896Z" fill="#535353"/>
<path d="M962 912V852H1022V912H962Z" fill="#CE7A99"/>
<path d="M962 852L946 836H1006L1022 852H962Z" fill="#EC8EB1"/>
<path d="M946 896V836L962 852V912L946 896Z" fill="#F4AEC8"/>
<path d="M1202 852V792H1262V852H1202Z" fill="#E2E9F4"/>
<path d="M1202 792L1186 776H1246L1262 792H1202Z" fill="#F4F9FF"/>
<path d="M1186 836V776L1202 792V852L1186 836Z" fill="white"/>
<path d="M1202 792V732H1262V792H1202Z" fill="#29C999"/>
<path d="M1202 732L1186 716H1246L1262 732H1202Z" fill="#3EE5B3"/>
<path d="M1186 776V716L1202 732V792L1186 776Z" fill="#74FEE2"/>
<path d="M1202 732V672H1262V732H1202Z" fill="#29C999"/>
<path d="M1202 672L1186 656H1246L1262 672H1202Z" fill="#3EE5B3"/>
<path d="M1186 716V656L1202 672V732L1186 716Z" fill="#74FEE2"/>
<path d="M1202 672V612H1262V672H1202Z" fill="#29C999"/>
<path d="M1202 612L1186 596H1246L1262 612H1202Z" fill="#3EE5B3"/>
<path d="M1186 656V596L1202 612V672L1186 656Z" fill="#74FEE2"/>
<path d="M1202 612V552H1262V612H1202Z" fill="#29C999"/>
<path d="M1202 552L1186 536H1246L1262 552H1202Z" fill="#3EE5B3"/>
<path d="M1186 596V536L1202 552V612L1186 596Z" fill="#74FEE2"/>
<path d="M1142 852V792H1202V852H1142Z" fill="#E2E9F4"/>
<path d="M1142 792L1126 776H1186L1202 792H1142Z" fill="#F4F9FF"/>
<path d="M1126 836V776L1142 792V852L1126 836Z" fill="white"/>
<path d="M1142 552V492H1202V552H1142Z" fill="#29C999"/>
<path d="M1142 492L1126 476H1186L1202 492H1142Z" fill="#3EE5B3"/>
<path d="M1126 536V476L1142 492V552L1126 536Z" fill="#74FEE2"/>
<path d="M2342 852V792H2402V852H2342Z" fill="#69AA1A"/>
<path d="M2342 792L2326 776H2386L2402 792H2342Z" fill="#78B82A"/>
<path d="M2326 836V776L2342 792V852L2326 836Z" fill="#95CD50"/>
<path d="M2342 792V732H2402V792H2342Z" fill="#69AA1A"/>
<path d="M2342 732L2326 716H2386L2402 732H2342Z" fill="#78B82A"/>
<path d="M2326 776V716L2342 732V792L2326 776Z" fill="#95CD50"/>
<path d="M2282 852V792H2342V852H2282Z" fill="#69AA1A"/>
<path d="M2282 792L2266 776H2326L2342 792H2282Z" fill="#78B82A"/>
<path d="M2266 836V776L2282 792V852L2266 836Z" fill="#95CD50"/>
<path d="M2282 672V612H2342V672H2282Z" fill="#CE7A99"/>
<path d="M2282 612L2266 596H2326L2342 612H2282Z" fill="#EC8EB1"/>
<path d="M2266 656V596L2282 612V672L2266 656Z" fill="#F4AEC8"/>
<path d="M2222 852V792H2282V852H2222Z" fill="#945516"/>
<path d="M2222 792L2206 776H2266L2282 792H2222Z" fill="#B87028"/>
<path d="M2206 836V776L2222 792V852L2206 836Z" fill="#DB9B5B"/>
<path d="M2222 792V732H2282V792H2222Z" fill="#945516"/>
<path d="M2222 732L2206 716H2266L2282 732H2222Z" fill="#B87028"/>
<path d="M2206 776V716L2222 732V792L2206 776Z" fill="#DB9B5B"/>
<path d="M2222 732V672H2282V732H2222Z" fill="#CE7A99"/>
<path d="M2222 672L2206 656H2266L2282 672H2222Z" fill="#EC8EB1"/>
<path d="M2206 716V656L2222 672V732L2206 716Z" fill="#F4AEC8"/>
<path d="M2222 672V612H2282V672H2222Z" fill="#CE7A99"/>
<path d="M2222 612L2206 596H2266L2282 612H2222Z" fill="#EC8EB1"/>
<path d="M2206 656V596L2222 612V672L2206 656Z" fill="#F4AEC8"/>
<path d="M2222 492V432H2282V492H2222Z" fill="#E2E9F4"/>
<path d="M2222 432L2206 416H2266L2282 432H2222Z" fill="#F4F9FF"/>
<path d="M2206 476V416L2222 432V492L2206 476Z" fill="white"/>
<path d="M2162 852V792H2222V852H2162Z" fill="#945516"/>
<path d="M2162 792L2146 776H2206L2222 792H2162Z" fill="#B87028"/>
<path d="M2146 836V776L2162 792V852L2146 836Z" fill="#DB9B5B"/>
<path d="M2162 792V732H2222V792H2162Z" fill="#29C999"/>
<path d="M2162 732L2146 716H2206L2222 732H2162Z" fill="#3EE5B3"/>
<path d="M2146 776V716L2162 732V792L2146 776Z" fill="#74FEE2"/>
<path d="M2162 732V672H2222V732H2162Z" fill="#29C999"/>
<path d="M2162 672L2146 656H2206L2222 672H2162Z" fill="#3EE5B3"/>
<path d="M2146 716V656L2162 672V732L2146 716Z" fill="#74FEE2"/>
<path d="M2162 672V612H2222V672H2162Z" fill="#CE7A99"/>
<path d="M2162 612L2146 596H2206L2222 612H2162Z" fill="#EC8EB1"/>
<path d="M2146 656V596L2162 612V672L2146 656Z" fill="#F4AEC8"/>
<path d="M2162 612V552H2222V612H2162Z" fill="#29C999"/>
<path d="M2162 552L2146 536H2206L2222 552H2162Z" fill="#3EE5B3"/>
<path d="M2146 596V536L2162 552V612L2146 596Z" fill="#74FEE2"/>
<path d="M2162 552V492H2222V552H2162Z" fill="#29C999"/>
<path d="M2162 492L2146 476H2206L2222 492H2162Z" fill="#3EE5B3"/>
<path d="M2146 536V476L2162 492V552L2146 536Z" fill="#74FEE2"/>
<path d="M2162 492V432H2222V492H2162Z" fill="#E2E9F4"/>
<path d="M2162 432L2146 416H2206L2222 432H2162Z" fill="#F4F9FF"/>
<path d="M2146 476V416L2162 432V492L2146 476Z" fill="white"/>
<path d="M2102 732V672H2162V732H2102Z" fill="#29C999"/>
<path d="M2102 672L2086 656H2146L2162 672H2102Z" fill="#3EE5B3"/>
<path d="M2086 716V656L2102 672V732L2086 716Z" fill="#74FEE2"/>
<path d="M2102 672V612H2162V672H2102Z" fill="#29C999"/>
<path d="M2102 612L2086 596H2146L2162 612H2102Z" fill="#3EE5B3"/>
<path d="M2086 656V596L2102 612V672L2086 656Z" fill="#74FEE2"/>
<path d="M2102 492V432H2162V492H2102Z" fill="#E2E9F4"/>
<path d="M2102 432L2086 416H2146L2162 432H2102Z" fill="#F4F9FF"/>
<path d="M2086 476V416L2102 432V492L2086 476Z" fill="white"/>
<path d="M2042 792V732H2102V792H2042Z" fill="#E2E9F4"/>
<path d="M2042 732L2026 716H2086L2102 732H2042Z" fill="#F4F9FF"/>
<path d="M2026 776V716L2042 732V792L2026 776Z" fill="white"/>
<path d="M2042 732V672H2102V732H2042Z" fill="#C91A11"/>
<path d="M2042 672L2026 656H2086L2102 672H2042Z" fill="#E22016"/>
<path d="M2026 716V656L2042 672V732L2026 716Z" fill="#EE4C44"/>
<path d="M2042 672V612H2102V672H2042Z" fill="#29C999"/>
<path d="M2042 612L2026 596H2086L2102 612H2042Z" fill="#3EE5B3"/>
<path d="M2026 656V596L2042 612V672L2026 656Z" fill="#74FEE2"/>
<path d="M2042 612V552H2102V612H2042Z" fill="#29C999"/>
<path d="M2042 552L2026 536H2086L2102 552H2042Z" fill="#3EE5B3"/>
<path d="M2026 596V536L2042 552V612L2026 596Z" fill="#74FEE2"/>
<path d="M1982 612V552H2042V612H1982Z" fill="#29C999"/>
<path d="M1982 552L1966 536H2026L2042 552H1982Z" fill="#3EE5B3"/>
<path d="M1966 596V536L1982 552V612L1966 596Z" fill="#74FEE2"/>
<path d="M1982 552V492H2042V552H1982Z" fill="#29C999"/>
<path d="M1982 492L1966 476H2026L2042 492H1982Z" fill="#3EE5B3"/>
<path d="M1966 536V476L1982 492V552L1966 536Z" fill="#74FEE2"/>
<path d="M2042 492V432H2102V492H2042Z" fill="#E2E9F4"/>
<path d="M2042 432L2026 416H2086L2102 432H2042Z" fill="#F4F9FF"/>
<path d="M2026 476V416L2042 432V492L2026 476Z" fill="white"/>
<path d="M722 912V852H782V912H722Z" fill="#50AAC6"/>
<path d="M722 852L706 836H766L782 852H722Z" fill="#6DC4DF"/>
<path d="M706 896V836L722 852V912L706 896Z" fill="#9ADEF3"/>
<path d="M662 912V852H722V912H662Z" fill="#50AAC6"/>
<path d="M662 852L646 836H706L722 852H662Z" fill="#6DC4DF"/>
<path d="M646 896V836L662 852V912L646 896Z" fill="#9ADEF3"/>
<path d="M1082 852V792H1142V852H1082Z" fill="#212121"/>
<path d="M1082 792L1066 776H1126L1142 792H1082Z" fill="#363636"/>
<path d="M1066 836V776L1082 792V852L1066 836Z" fill="#535353"/>
<path d="M1082 552V492H1142V552H1082Z" fill="#29C999"/>
<path d="M1082 492L1066 476H1126L1142 492H1082Z" fill="#3EE5B3"/>
<path d="M1066 536V476L1082 492V552L1066 536Z" fill="#74FEE2"/>
<path d="M1022 852V792H1082V852H1022Z" fill="#212121"/>
<path d="M1022 792L1006 776H1066L1082 792H1022Z" fill="#363636"/>
<path d="M1006 836V776L1022 792V852L1006 836Z" fill="#535353"/>
<path d="M1022 792V732H1082V792H1022Z" fill="#29C999"/>
<path d="M1022 732L1006 716H1066L1082 732H1022Z" fill="#3EE5B3"/>
<path d="M1006 776V716L1022 732V792L1006 776Z" fill="#74FEE2"/>
<path d="M1022 732V672H1082V732H1022Z" fill="#29C999"/>
<path d="M1022 672L1006 656H1066L1082 672H1022Z" fill="#3EE5B3"/>
<path d="M1006 716V656L1022 672V732L1006 716Z" fill="#74FEE2"/>
<path d="M1022 672V612H1082V672H1022Z" fill="#29C999"/>
<path d="M1022 612L1006 596H1066L1082 612H1022Z" fill="#3EE5B3"/>
<path d="M1006 656V596L1022 612V672L1006 656Z" fill="#74FEE2"/>
<path d="M1022 612V552H1082V612H1022Z" fill="#29C999"/>
<path d="M1022 552L1006 536H1066L1082 552H1022Z" fill="#3EE5B3"/>
<path d="M1006 596V536L1022 552V612L1006 596Z" fill="#74FEE2"/>
<path d="M1022 552V492H1082V552H1022Z" fill="#29C999"/>
<path d="M1022 492L1006 476H1066L1082 492H1022Z" fill="#3EE5B3"/>
<path d="M1006 536V476L1022 492V552L1006 536Z" fill="#74FEE2"/>
<path d="M962 852V792H1022V852H962Z" fill="#CE7A99"/>
<path d="M962 792L946 776H1006L1022 792H962Z" fill="#EC8EB1"/>
<path d="M946 836V776L962 792V852L946 836Z" fill="#F4AEC8"/>
<path d="M962 792V732H1022V792H962Z" fill="#CE7A99"/>
<path d="M962 732L946 716H1006L1022 732H962Z" fill="#EC8EB1"/>
<path d="M946 776V716L962 732V792L946 776Z" fill="#F4AEC8"/>
<path d="M902 852V792H962V852H902Z" fill="#CE7A99"/>
<path d="M902 792L886 776H946L962 792H902Z" fill="#EC8EB1"/>
<path d="M886 836V776L902 792V852L886 836Z" fill="#F4AEC8"/>
<path d="M902 792V732H962V792H902Z" fill="#C4BC15"/>
<path d="M902 732L886 716H946L962 732H902Z" fill="#EFE524"/>
<path d="M886 776V716L902 732V792L886 776Z" fill="#FCF45F"/>
<path d="M902 732V672H962V732H902Z" fill="#C4BC15"/>
<path d="M902 672L886 656H946L962 672H902Z" fill="#EFE524"/>
<path d="M886 716V656L902 672V732L886 716Z" fill="#FCF45F"/>
<path d="M842 492V432H902V492H842Z" fill="#29C999"/>
<path d="M842 432L826 416H886L902 432H842Z" fill="#3EE5B3"/>
<path d="M826 476V416L842 432V492L826 476Z" fill="#74FEE2"/>
<path d="M902 672V612H962V672H902Z" fill="#C4BC15"/>
<path d="M902 612L886 596H946L962 612H902Z" fill="#EFE524"/>
<path d="M886 656V596L902 612V672L886 656Z" fill="#FCF45F"/>
<path d="M902 612V552H962V612H902Z" fill="#561766"/>
<path d="M902 552L886 536H946L962 552H902Z" fill="#6D2380"/>
<path d="M886 596V536L902 552V612L886 596Z" fill="#9644AB"/>
<path d="M842 432V372H902V432H842Z" fill="#29C999"/>
<path d="M842 372L826 356H886L902 372H842Z" fill="#3EE5B3"/>
<path d="M826 416V356L842 372V432L826 416Z" fill="#74FEE2"/>
<path d="M542 912V852H602V912H542Z" fill="#DE7C12"/>
<path d="M542 852L526 836H586L602 852H542Z" fill="#F28917"/>
<path d="M526 896V836L542 852V912L526 896Z" fill="#FEA13B"/>
<path d="M782 852V792H842V852H782Z" fill="#50AAC6"/>
<path d="M782 792L766 776H826L842 792H782Z" fill="#6DC4DF"/>
<path d="M766 836V776L782 792V852L766 836Z" fill="#9ADEF3"/>
<path d="M842 732V672H902V732H842Z" fill="#C4BC15"/>
<path d="M842 672L826 656H886L902 672H842Z" fill="#EFE524"/>
<path d="M826 716V656L842 672V732L826 716Z" fill="#FCF45F"/>
<path d="M782 612V552H842V612H782Z" fill="#29C999"/>
<path d="M782 552L766 536H826L842 552H782Z" fill="#3EE5B3"/>
<path d="M766 596V536L782 552V612L766 596Z" fill="#74FEE2"/>
<path d="M782 552V492H842V552H782Z" fill="#29C999"/>
<path d="M782 492L766 476H826L842 492H782Z" fill="#3EE5B3"/>
<path d="M766 536V476L782 492V552L766 536Z" fill="#74FEE2"/>
<path d="M782 492V432H842V492H782Z" fill="#29C999"/>
<path d="M782 432L766 416H826L842 432H782Z" fill="#3EE5B3"/>
<path d="M766 476V416L782 432V492L766 476Z" fill="#74FEE2"/>
<path d="M782 432V372H842V432H782Z" fill="#29C999"/>
<path d="M782 372L766 356H826L842 372H782Z" fill="#3EE5B3"/>
<path d="M766 416V356L782 372V432L766 416Z" fill="#74FEE2"/>
<path d="M842 372V312H902V372H842Z" fill="#C91A11"/>
<path d="M842 312L826 296H886L902 312H842Z" fill="#E22016"/>
<path d="M826 356V296L842 312V372L826 356Z" fill="#EE4C44"/>
<path d="M722 852V792H782V852H722Z" fill="#50AAC6"/>
<path d="M722 792L706 776H766L782 792H722Z" fill="#6DC4DF"/>
<path d="M706 836V776L722 792V852L706 836Z" fill="#9ADEF3"/>
<path d="M722 732V672H782V732H722Z" fill="#29C999"/>
<path d="M722 672L706 656H766L782 672H722Z" fill="#3EE5B3"/>
<path d="M706 716V656L722 672V732L706 716Z" fill="#74FEE2"/>
<path d="M722 672V612H782V672H722Z" fill="#29C999"/>
<path d="M722 612L706 596H766L782 612H722Z" fill="#3EE5B3"/>
<path d="M706 656V596L722 612V672L706 656Z" fill="#74FEE2"/>
<path d="M722 612V552H782V612H722Z" fill="#29C999"/>
<path d="M722 552L706 536H766L782 552H722Z" fill="#3EE5B3"/>
<path d="M706 596V536L722 552V612L706 596Z" fill="#74FEE2"/>
<path d="M722 552V492H782V552H722Z" fill="#29C999"/>
<path d="M722 492L706 476H766L782 492H722Z" fill="#3EE5B3"/>
<path d="M706 536V476L722 492V552L706 536Z" fill="#74FEE2"/>
<path d="M422 912V852H482V912H422Z" fill="#C91A11"/>
<path d="M422 852L406 836H466L482 852H422Z" fill="#E22016"/>
<path d="M406 896V836L422 852V912L406 896Z" fill="#EE4C44"/>
<path d="M662 852V792H722V852H662Z" fill="#29C999"/>
<path d="M662 792L646 776H706L722 792H662Z" fill="#3EE5B3"/>
<path d="M646 836V776L662 792V852L646 836Z" fill="#74FEE2"/>
<path d="M662 792V732H722V792H662Z" fill="#29C999"/>
<path d="M662 732L646 716H706L722 732H662Z" fill="#3EE5B3"/>
<path d="M646 776V716L662 732V792L646 776Z" fill="#74FEE2"/>
<path d="M662 732V672H722V732H662Z" fill="#29C999"/>
<path d="M662 672L646 656H706L722 672H662Z" fill="#3EE5B3"/>
<path d="M646 716V656L662 672V732L646 716Z" fill="#74FEE2"/>
<path d="M662 672V612H722V672H662Z" fill="#29C999"/>
<path d="M662 612L646 596H706L722 612H662Z" fill="#3EE5B3"/>
<path d="M646 656V596L662 612V672L646 656Z" fill="#74FEE2"/>
<path d="M602 852V792H662V852H602Z" fill="#29C999"/>
<path d="M602 792L586 776H646L662 792H602Z" fill="#3EE5B3"/>
<path d="M586 836V776L602 792V852L586 836Z" fill="#74FEE2"/>
<path d="M602 792V732H662V792H602Z" fill="#29C999"/>
<path d="M602 732L586 716H646L662 732H602Z" fill="#3EE5B3"/>
<path d="M586 776V716L602 732V792L586 776Z" fill="#74FEE2"/>
<path d="M542 852V792H602V852H542Z" fill="#212121"/>
<path d="M542 792L526 776H586L602 792H542Z" fill="#363636"/>
<path d="M526 836V776L542 792V852L526 836Z" fill="#535353"/>
<path d="M482 852V792H542V852H482Z" fill="#C91A11"/>
<path d="M482 792L466 776H526L542 792H482Z" fill="#E22016"/>
<path d="M466 836V776L482 792V852L466 836Z" fill="#EE4C44"/>
<path d="M482 792V732H542V792H482Z" fill="#1E468A"/>
<path d="M482 732L466 716H526L542 732H482Z" fill="#2C58A4"/>
<path d="M466 776V716L482 732V792L466 776Z" fill="#5076B8"/>
<path d="M422 852V792H482V852H422Z" fill="#C91A11"/>
<path d="M422 792L406 776H466L482 792H422Z" fill="#E22016"/>
<path d="M406 836V776L422 792V852L406 836Z" fill="#EE4C44"/>
<path d="M362 912V852H422V912H362Z" fill="#561766"/>
<path d="M362 852L346 836H406L422 852H362Z" fill="#6D2380"/>
<path d="M346 896V836L362 852V912L346 896Z" fill="#9644AB"/>
<path d="M362 852V792H422V852H362Z" fill="#C91A11"/>
<path d="M362 792L346 776H406L422 792H362Z" fill="#E22016"/>
<path d="M346 836V776L362 792V852L346 836Z" fill="#EE4C44"/>
<path d="M422 792V732H482V792H422Z" fill="#29C999"/>
<path d="M422 732L406 716H466L482 732H422Z" fill="#3EE5B3"/>
<path d="M406 776V716L422 732V792L406 776Z" fill="#74FEE2"/>
<path d="M362 792V732H422V792H362Z" fill="#29C999"/>
<path d="M362 732L346 716H406L422 732H362Z" fill="#3EE5B3"/>
<path d="M346 776V716L362 732V792L346 776Z" fill="#74FEE2"/>
<path d="M422 732V672H482V732H422Z" fill="#29C999"/>
<path d="M422 672L406 656H466L482 672H422Z" fill="#3EE5B3"/>
<path d="M406 716V656L422 672V732L406 716Z" fill="#74FEE2"/>
<path d="M362 732V672H422V732H362Z" fill="#29C999"/>
<path d="M362 672L346 656H406L422 672H362Z" fill="#3EE5B3"/>
<path d="M346 716V656L362 672V732L346 716Z" fill="#74FEE2"/>
<path d="M302 912V852H362V912H302Z" fill="#561766"/>
<path d="M302 852L286 836H346L362 852H302Z" fill="#6D2380"/>
<path d="M286 896V836L302 852V912L286 896Z" fill="#9644AB"/>
<path d="M302 852V792H362V852H302Z" fill="#561766"/>
<path d="M302 792L286 776H346L362 792H302Z" fill="#6D2380"/>
<path d="M286 836V776L302 792V852L286 836Z" fill="#9644AB"/>
<path d="M302 792V732H362V792H302Z" fill="#561766"/>
<path d="M302 732L286 716H346L362 732H302Z" fill="#6D2380"/>
<path d="M286 776V716L302 732V792L286 776Z" fill="#9644AB"/>
<path d="M1982 792V732H2042V792H1982Z" fill="#29C999"/>
<path d="M1982 732L1966 716H2026L2042 732H1982Z" fill="#3EE5B3"/>
<path d="M1966 776V716L1982 732V792L1966 776Z" fill="#74FEE2"/>
<path d="M1982 732V672H2042V732H1982Z" fill="#29C999"/>
<path d="M1982 672L1966 656H2026L2042 672H1982Z" fill="#3EE5B3"/>
<path d="M1966 716V656L1982 672V732L1966 716Z" fill="#74FEE2"/>
<rect x="307" y="215" width="2108" height="710" fill="#C0E2CD" fill-opacity="0.05"/>
<g filter="url(#filter1_i_3735_12582)">
<path d="M1126.88 1037.48V993.08H1134V986.12H1157.68V993.08H1164.88V1017H1157.68V1023.88H1136.32V1037.48H1126.88ZM1136.32 1013.96H1155.36V996.04H1136.32V1013.96ZM1172.21 1023.88V993.08H1179.33V986.12H1203.01V993.08H1210.21V1002.92H1200.69V996.04H1181.65V1023.88H1172.21ZM1217.55 1023.88V986.12H1226.99V1023.88H1217.55ZM1217.55 982.12V972.12H1226.99V982.12H1217.55ZM1241.49 1023.88V1017H1234.37V993.08H1241.49V986.12H1262.93V972.12H1272.45V1017H1265.17V1023.88H1241.49ZM1243.81 1013.96H1262.85V996.04H1243.81V1013.96ZM1285.26 1023.88V1017H1278.14V993.08H1285.26V986.12H1308.94V993.08H1316.14V1002.92H1306.62V996.04H1287.58V999.96H1301.9V1009.96H1287.58V1013.96H1306.62V1006.92H1316.14V1016.92H1308.94V1023.88H1285.26ZM1344.21 1023.88V1017H1337.09V993.08H1344.21V986.12H1367.89V993.08H1375.09V1002.92H1365.57V996.04H1346.53V999.96H1360.85V1009.96H1346.53V1013.96H1365.57V1006.92H1375.09V1016.92H1367.89V1023.88H1344.21ZM1389.54 1023.88V1017H1382.42V993.08H1389.54V986.12H1410.98V972.12H1420.5V1017H1413.22V1023.88H1389.54ZM1391.86 1013.96H1410.9V996.04H1391.86V1013.96ZM1427.76 1023.88V986.12H1437.2V1023.88H1427.76ZM1427.76 982.12V972.12H1437.2V982.12H1427.76ZM1456.31 1023.88V1017H1449.27V996.04H1442.15V986.12H1449.27V972.12H1458.71V986.12H1480.15V996.04H1458.71V1013.96H1477.83V1007H1487.35V1017H1480.15V1023.88H1456.31ZM1494.68 1023.88V986.12H1504.12V1023.88H1494.68ZM1494.68 982.12V972.12H1504.12V982.12H1494.68ZM1517.05 1023.88V1017H1509.93V993.08H1517.05V986.12H1540.73V993.08H1547.93V1017H1540.73V1023.88H1517.05ZM1519.37 1013.96H1538.41V996.04H1519.37V1013.96ZM1555.27 1023.88V986.12H1586.07V993.08H1593.27V1023.88H1583.75V996.04H1564.71V1023.88H1555.27Z" fill="#828282"/>
</g>
<rect x="1034.5" y="1091.5" width="653" height="117" stroke="#828282"/>
<rect x="1035" y="1092" width="646" height="19" fill="#E22016"/>
<rect x="1035" y="1111" width="646" height="19" fill="#F28917"/>
<rect x="1035" y="1130" width="646" height="18" fill="#EFE524"/>
<rect x="1035" y="1184" width="646" height="18" fill="#6D2380"/>
<rect x="1035" y="1148" width="646" height="17" fill="#78B82A"/>
<rect x="1035" y="1165" width="646" height="19" fill="#2C58A4"/>
<path d="M1035 1202H1681L1687 1208H1035V1202Z" fill="#828282"/>
<path d="M1681 1092H1687V1208L1681 1202V1092Z" fill="#626262"/>
<path d="M306.5 215.5V924.5H135.5V215.5H306.5Z" fill="#424242" stroke="#424242"/>
<path d="M134.5 215.207V923.793L95.5 884.793V176.207L134.5 215.207Z" fill="#626262" stroke="#626262"/>
<path d="M2586.5 215.5V924.5H2415.5V215.5H2586.5Z" fill="#424242" stroke="#424242"/>
<path d="M2586.5 115.5V214.5H135.5V115.5H2586.5Z" fill="#424242" stroke="#424242"/>
<path d="M134.5 115.207V213.793L95.5 174.793V76.207L134.5 115.207Z" fill="#626262" stroke="#626262"/>
<path d="M2546.79 75.5L2585.79 114.5H135.207L96.207 75.5H2546.79Z" fill="#838383" stroke="#424242"/>
<defs>
<filter id="filter1_i_3735_12582" x="1126.88" y="972.121" width="466.387" height="65.3594" filterUnits="userSpaceOnUse" color-interpolation-filters="sRGB">
<feFlood flood-opacity="0" result="BackgroundImageFix"/>
<feBlend mode="normal" in="SourceGraphic" in2="BackgroundImageFix" result="shape"/>
<feColorMatrix in="SourceAlpha" type="matrix" values="0 0 0 0 0 0 0 0 0 0 0 0 0 0 0 0 0 0 127 0" result="hardAlpha"/>
<feOffset dy="-4"/>
<feComposite in2="hardAlpha" operator="arithmetic" k2="-1" k3="1"/>
<feColorMatrix type="matrix" values="0 0 0 0 0.666667 0 0 0 0 0.666667 0 0 0 0 0.666667 0 0 0 1 0"/>
<feBlend mode="normal" in2="shape" result="effect1_innerShadow_3735_12582"/>
</filter>
</defs>
</svg>
